<svg width="1318" height="254" viewBox="0 0 1318 254" fill="none" xmlns="http://www.w3.org/2000/svg">
<path d="M0.559998 192L1.328 187.904L20.784 177.664L45.616 37.3761L27.184 27.1361L27.952 23.0401H88.88L88.112 27.1361L67.376 37.3761L42.544 177.664L62.256 187.904L61.488 192H0.559998Z" fill="#f4f6f7"/>
<path d="M97.388 192L115.052 92.4161L95.084 83.4561V81.9201L131.436 74.2401H132.204V101.12H133.228C139.201 94.4641 144.492 89.1734 149.1 85.2481C153.708 81.3228 158.145 78.5068 162.412 76.8001C166.679 75.0934 171.628 74.2401 177.26 74.2401C185.623 74.2401 192.023 77.6534 196.46 84.4801C201.068 91.3068 202.348 100.523 200.3 112.128L191.34 161.536C190.487 166.656 190.316 170.325 190.828 172.544C191.511 174.763 192.961 175.872 195.18 175.872C198.081 175.872 201.239 174.336 204.652 171.264C208.065 168.021 211.308 163.157 214.38 156.672L217.708 158.208C212.759 171.008 207.383 180.309 201.58 186.112C195.948 191.744 190.145 194.56 184.172 194.56C178.199 194.56 174.103 192.256 171.884 187.648C169.665 183.04 169.239 176.896 170.604 169.216L180.588 112.896C181.441 106.923 180.673 101.632 178.284 97.0241C176.065 92.2454 171.201 89.8561 163.692 89.8561C159.937 89.8561 156.012 91.1361 151.916 93.6961C147.991 96.2561 144.151 99.3281 140.396 102.912C136.641 106.325 133.313 109.653 130.412 112.896L116.844 192H97.388Z" fill="#f4f6f7"/>
<path d="M258.226 194.56C249.522 194.56 242.439 193.365 236.978 190.976C231.517 188.416 227.591 185.259 225.202 181.504C224.178 179.968 223.495 178.688 223.154 177.664C222.813 176.64 222.642 175.531 222.642 174.336C222.642 173.312 222.813 172.288 223.154 171.264C223.495 170.069 224.349 169.131 225.714 168.448L231.346 165.376H233.138L237.49 172.8C240.05 177.067 243.463 180.309 247.73 182.528C251.997 184.576 256.263 185.6 260.53 185.6C267.015 185.6 272.306 183.893 276.402 180.48C280.669 177.067 282.802 172.117 282.802 165.632C282.802 158.976 280.583 153.856 276.146 150.272C271.879 146.688 267.015 143.275 261.554 140.032C255.069 136.107 250.205 132.523 246.962 129.28C243.719 126.037 241.501 122.709 240.306 119.296C239.111 115.883 238.514 111.787 238.514 107.008C238.514 102.059 240.391 97.1094 244.146 92.1601C247.901 87.0401 252.85 82.7734 258.994 79.3601C265.138 75.9468 271.623 74.2401 278.45 74.2401C285.959 74.2401 291.847 75.4348 296.114 77.8241C300.381 80.0428 303.709 82.9441 306.098 86.5281C307.634 88.9174 308.402 91.1361 308.402 93.1841C308.402 94.3788 308.061 95.5734 307.378 96.7681C306.866 97.9628 306.013 98.9014 304.818 99.5841L299.954 102.144H298.162L292.53 94.2081C290.141 90.7948 287.41 88.2348 284.338 86.5281C281.437 84.6508 277.767 83.7121 273.33 83.7121C268.381 83.7121 264.114 85.2481 260.53 88.3201C257.117 91.2214 255.41 95.0614 255.41 99.8401C255.41 105.301 257.031 109.824 260.274 113.408C263.687 116.992 267.613 120.064 272.05 122.624C278.194 126.208 283.229 129.621 287.154 132.864C291.25 136.107 294.322 139.776 296.37 143.872C298.418 147.968 299.442 153.173 299.442 159.488C299.442 165.461 297.65 171.179 294.066 176.64C290.482 181.931 285.533 186.283 279.218 189.696C273.074 192.939 266.077 194.56 258.226 194.56Z" fill="#f4f6f7"/>
<path d="M365.116 42.2401C361.191 42.2401 357.777 40.7894 354.876 37.8881C351.975 34.9868 350.524 31.5734 350.524 27.6481C350.524 23.7228 351.975 20.3094 354.876 17.4081C357.777 14.5068 361.191 13.0561 365.116 13.0561C369.041 13.0561 372.455 14.5068 375.356 17.4081C378.257 20.3094 379.708 23.7228 379.708 27.6481C379.708 31.5734 378.257 34.9868 375.356 37.8881C372.455 40.7894 369.041 42.2401 365.116 42.2401ZM346.94 194.56C340.967 194.56 336.871 192.256 334.652 187.648C332.433 183.04 332.007 176.896 333.372 169.216L346.94 92.1601L324.668 83.4561V81.9201L368.956 74.2401H369.724L354.108 161.536C353.255 166.656 353.084 170.325 353.596 172.544C354.108 174.763 355.559 175.872 357.948 175.872C360.849 175.872 364.007 174.336 367.42 171.264C370.833 168.021 374.076 163.157 377.148 156.672L380.476 158.208C375.527 171.008 370.151 180.309 364.348 186.112C358.716 191.744 352.913 194.56 346.94 194.56Z" fill="#f4f6f7"/>
<path d="M436.818 152.832C431.698 152.832 427.005 152.064 422.738 150.528C418.813 152.405 415.997 154.795 414.29 157.696C412.754 160.427 411.986 163.328 411.986 166.4C411.986 169.813 413.693 172.459 417.106 174.336C420.519 176.213 424.871 177.749 430.162 178.944C435.623 180.139 441.426 181.419 447.57 182.784C453.714 183.979 459.431 185.685 464.722 187.904C470.183 189.952 474.621 192.768 478.034 196.352C481.447 200.107 483.154 205.056 483.154 211.2C483.154 218.027 481.021 224.683 476.754 231.168C472.487 237.653 466.087 242.944 457.554 247.04C449.191 251.307 438.525 253.44 425.554 253.44C410.365 253.44 399.101 250.965 391.762 246.016C384.594 241.067 381.01 234.837 381.01 227.328C381.01 221.867 381.863 217.6 383.57 214.528C385.106 211.456 387.751 208.043 391.506 204.288L411.986 192.768V192.256C406.695 190.72 402.258 188.587 398.674 185.856C395.261 183.125 393.554 179.115 393.554 173.824C393.554 170.24 393.981 167.253 394.834 164.864C395.687 162.475 397.309 159.915 399.698 157.184L416.85 148.48V147.712C412.242 144.981 408.573 141.312 405.842 136.704C403.282 131.925 402.002 126.549 402.002 120.576C402.002 113.408 404.05 106.325 408.146 99.3281C412.413 92.1601 418.13 86.1868 425.298 81.4081C432.637 76.6294 440.999 74.2401 450.386 74.2401C454.994 74.2401 459.773 75.0934 464.722 76.8001H503.378V88.0641H480.594L479.57 88.8321C483.154 93.6108 484.946 99.9254 484.946 107.776C484.946 112.555 483.837 117.589 481.618 122.88C479.399 128 476.157 132.864 471.89 137.472C467.623 142.08 462.503 145.835 456.53 148.736C450.727 151.467 444.157 152.832 436.818 152.832ZM441.426 142.848C446.205 142.848 450.386 141.056 453.97 137.472C457.725 133.888 460.626 129.536 462.674 124.416C464.893 119.125 466.002 113.92 466.002 108.8C466.002 101.461 464.21 95.5734 460.626 91.1361C457.042 86.5281 452.349 84.2241 446.546 84.2241C441.426 84.2241 436.903 85.9308 432.978 89.3441C429.223 92.5868 426.322 96.7681 424.274 101.888C422.226 107.008 421.202 112.299 421.202 117.76C421.202 125.269 422.994 131.328 426.578 135.936C430.333 140.544 435.282 142.848 441.426 142.848ZM400.21 224.512C400.21 230.827 402.855 235.861 408.146 239.616C413.607 243.541 420.861 245.504 429.906 245.504C441.682 245.504 450.386 242.859 456.018 237.568C461.65 232.277 464.466 225.963 464.466 218.624C464.466 213.845 463.015 210.005 460.114 207.104C457.383 204.373 453.714 202.24 449.106 200.704C444.498 199.168 439.463 197.888 434.002 196.864C428.711 196.011 423.506 194.987 418.386 193.792C410.535 199.253 405.501 204.459 403.282 209.408C401.234 214.528 400.21 219.563 400.21 224.512Z" fill="#f4f6f7"/>
<path d="M523.956 192H504.5L534.964 18.4321L514.996 9.47209V7.9361L556.98 0.256104H557.748L540.084 101.12H540.596C546.569 94.4641 551.775 89.1734 556.212 85.2481C560.82 81.3228 565.257 78.5068 569.524 76.8001C573.961 75.0934 578.911 74.2401 584.372 74.2401C592.735 74.2401 599.135 77.6534 603.572 84.4801C608.18 91.3068 609.46 100.523 607.412 112.128L598.452 161.536C597.599 166.656 597.428 170.325 597.94 172.544C598.452 174.763 599.903 175.872 602.292 175.872C605.193 175.872 608.351 174.336 611.764 171.264C615.177 168.021 618.42 163.157 621.492 156.672L624.82 158.208C619.871 171.008 614.495 180.309 608.692 186.112C603.06 191.744 597.257 194.56 591.284 194.56C585.311 194.56 581.215 192.256 578.996 187.648C576.777 183.04 576.351 176.896 577.716 169.216L587.7 112.896C588.553 106.923 587.785 101.632 585.396 97.0241C583.177 92.2454 578.313 89.8561 570.804 89.8561C567.049 89.8561 563.209 91.1361 559.284 93.6961C555.359 96.0854 551.519 99.0721 547.764 102.656C544.009 106.069 540.767 109.312 538.036 112.384L523.956 192Z" fill="#f4f6f7"/>
<path d="M660.046 194.56C654.414 194.56 650.147 192.768 647.246 189.184C644.345 185.6 642.894 180.565 642.894 174.08C642.894 172.715 642.979 171.179 643.15 169.472C643.321 167.765 643.577 166.059 643.918 164.352L657.486 88.0641H638.542V86.5281L660.302 76.8001L682.318 48.6401H683.854L678.99 76.8001H710.99V88.0641H676.942L665.422 153.088C665.081 155.307 664.825 157.355 664.654 159.232C664.483 160.939 664.398 162.475 664.398 163.84C664.398 167.936 665.081 170.837 666.446 172.544C667.811 174.251 669.603 175.104 671.822 175.104C675.747 175.104 679.929 172.885 684.366 168.448C688.974 164.011 693.155 157.611 696.91 149.248L700.238 150.784C694.606 166.997 688.291 178.347 681.294 184.832C674.467 191.317 667.385 194.56 660.046 194.56Z" fill="#f4f6f7"/>
<path d="M741.058 192L742.082 187.904L767.938 177.664L793.282 35.8401H753.602L730.306 74.7521H726.21L735.17 23.0401H877.25L868.034 74.7521H863.938L854.21 35.8401H815.298L789.954 177.664L812.482 187.904L811.714 192H741.058Z" fill="#f4f6f7"/>
<path d="M892.6 194.56C877.752 194.56 866.744 189.952 859.576 180.736C852.579 171.52 849.08 159.573 849.08 144.896C849.08 136.875 850.531 128.768 853.432 120.576C856.333 112.213 860.515 104.533 865.976 97.5361C871.437 90.5388 877.923 84.9068 885.432 80.6401C892.941 76.3734 901.219 74.2401 910.264 74.2401C925.112 74.2401 936.035 78.8481 943.032 88.0641C950.2 97.2801 953.784 109.227 953.784 123.904C953.784 131.584 952.333 139.605 949.432 147.968C946.701 156.16 942.605 163.84 937.144 171.008C931.853 178.005 925.453 183.723 917.944 188.16C910.435 192.427 901.987 194.56 892.6 194.56ZM895.416 184.832C902.755 184.832 909.155 182.016 914.616 176.384C920.077 170.581 924.259 162.987 927.16 153.6C930.061 144.043 931.512 133.632 931.512 122.368C931.512 109.739 929.805 100.181 926.392 93.6961C923.149 87.0401 917.005 83.7121 907.96 83.7121C900.792 83.7121 894.392 86.3574 888.76 91.6481C883.299 96.7681 879.032 103.936 875.96 113.152C872.888 122.368 871.352 133.205 871.352 145.664C871.352 158.293 873.059 168.021 876.472 174.848C879.885 181.504 886.2 184.832 895.416 184.832Z" fill="#f4f6f7"/>
<path d="M997.054 194.56C990.739 194.56 985.534 192.085 981.438 187.136C977.513 182.187 975.55 175.445 975.55 166.912C975.55 165.205 975.635 163.499 975.806 161.792C976.147 160.085 976.403 158.379 976.574 156.672L988.094 92.4161L968.126 83.4561V81.9201L1009.09 74.2401H1010.11L996.798 152.576C996.115 156.843 995.774 159.915 995.774 161.792C995.774 166.571 996.883 170.667 999.102 174.08C1001.49 177.323 1005.33 178.944 1010.62 178.944C1014.21 178.944 1017.79 177.664 1021.37 175.104C1025.13 172.544 1028.71 169.472 1032.13 165.888C1035.54 162.304 1038.61 158.976 1041.34 155.904L1052.35 92.4161L1034.69 83.4561V81.9201L1073.6 74.2401H1074.62L1059.26 161.536C1058.41 166.656 1058.24 170.325 1058.75 172.544C1059.43 174.763 1061.05 175.872 1063.61 175.872C1066.52 175.872 1069.67 174.336 1073.09 171.264C1076.5 168.021 1079.74 163.157 1082.81 156.672L1086.14 158.208C1081.19 171.008 1075.82 180.309 1070.01 186.112C1064.38 191.744 1058.58 194.56 1052.61 194.56C1046.63 194.56 1042.54 192.256 1040.32 187.648C1038.27 183.04 1037.84 176.896 1039.04 169.216L1039.29 167.68H1038.53C1032.72 174.165 1027.69 179.371 1023.42 183.296C1019.16 187.221 1014.97 190.123 1010.88 192C1006.95 193.707 1002.34 194.56 997.054 194.56Z" fill="#f4f6f7"/>
<path d="M1135.67 194.56C1123.38 194.56 1113.99 190.891 1107.51 183.552C1101.02 176.043 1097.78 165.205 1097.78 151.04C1097.78 142.165 1099.49 133.291 1102.9 124.416C1106.48 115.371 1111.26 107.093 1117.24 99.5841C1123.38 91.9041 1130.21 85.7601 1137.72 81.1521C1145.4 76.5441 1153.25 74.2401 1161.27 74.2401C1167.58 74.2401 1172.7 75.4348 1176.63 77.8241C1180.55 80.0428 1183.71 83.0294 1186.1 86.7841C1187.12 88.3201 1187.81 89.6001 1188.15 90.6241C1188.49 91.6481 1188.66 92.7574 1188.66 93.9521C1188.66 95.1468 1188.32 96.3414 1187.64 97.5361C1187.12 98.7308 1186.19 99.7548 1184.82 100.608L1177.4 104.96H1175.6L1170.48 97.5361C1167.75 93.4401 1164.94 90.4534 1162.04 88.5761C1159.31 86.5281 1155.29 85.5041 1150 85.5041C1144.37 85.5041 1139 88.2348 1133.88 93.6961C1128.93 99.1574 1124.83 106.155 1121.59 114.688C1118.52 123.051 1116.98 131.84 1116.98 141.056C1116.98 153.173 1119.03 162.475 1123.12 168.96C1127.39 175.445 1134.22 178.688 1143.6 178.688C1146.51 178.688 1149.75 178.176 1153.33 177.152C1156.92 175.957 1160.84 173.653 1165.11 170.24C1169.37 166.656 1174.07 161.28 1179.19 154.112H1179.7L1182.26 156.16C1174.92 169.131 1167.5 178.773 1159.99 185.088C1152.48 191.403 1144.37 194.56 1135.67 194.56Z" fill="#f4f6f7"/>
<path d="M1216.25 192H1196.79L1227.25 18.4321L1207.29 9.47209V7.9361L1249.27 0.256104H1250.04L1232.37 101.12H1232.89C1238.86 94.4641 1244.06 89.1734 1248.5 85.2481C1253.11 81.3228 1257.55 78.5068 1261.81 76.8001C1266.25 75.0934 1271.2 74.2401 1276.66 74.2401C1285.02 74.2401 1291.42 77.6534 1295.86 84.4801C1300.47 91.3068 1301.75 100.523 1299.7 112.128L1290.74 161.536C1289.89 166.656 1289.72 170.325 1290.23 172.544C1290.74 174.763 1292.19 175.872 1294.58 175.872C1297.48 175.872 1300.64 174.336 1304.05 171.264C1307.47 168.021 1310.71 163.157 1313.78 156.672L1317.11 158.208C1312.16 171.008 1306.78 180.309 1300.98 186.112C1295.35 191.744 1289.55 194.56 1283.57 194.56C1277.6 194.56 1273.5 192.256 1271.29 187.648C1269.07 183.04 1268.64 176.896 1270.01 169.216L1279.99 112.896C1280.84 106.923 1280.08 101.632 1277.69 97.0241C1275.47 92.2454 1270.6 89.8561 1263.09 89.8561C1259.34 89.8561 1255.5 91.1361 1251.57 93.6961C1247.65 96.0854 1243.81 99.0721 1240.05 102.656C1236.3 106.069 1233.06 109.312 1230.33 112.384L1216.25 192Z" fill="#f4f6f7"/>
</svg>
