<svg width="1320" height="254" viewBox="0 0 1320 254" fill="none" xmlns="http://www.w3.org/2000/svg">
<path d="M725.848 215.752H717.976L718.264 214.28H735.672L735.352 215.752H727.48L722.936 237H721.336L725.848 215.752Z" fill="#F4F6F7" fill-opacity="0.8"/>
<path d="M737.932 237.32C736.524 237.32 735.351 237.011 734.412 236.392C733.495 235.752 732.802 234.909 732.332 233.864C731.863 232.797 731.628 231.635 731.628 230.376C731.628 228.947 731.884 227.613 732.396 226.376C732.93 225.117 733.644 224.019 734.54 223.08C735.436 222.141 736.46 221.405 737.612 220.872C738.786 220.339 740.002 220.072 741.26 220.072C742.668 220.072 743.842 220.392 744.78 221.032C745.719 221.672 746.412 222.525 746.86 223.592C747.33 224.637 747.564 225.8 747.564 227.08C747.564 228.488 747.308 229.811 746.796 231.048C746.284 232.285 745.58 233.384 744.684 234.344C743.788 235.283 742.764 236.019 741.612 236.552C740.46 237.064 739.234 237.32 737.932 237.32ZM738.22 235.88C739.202 235.88 740.151 235.667 741.068 235.24C741.986 234.813 742.807 234.216 743.532 233.448C744.279 232.659 744.866 231.752 745.292 230.728C745.719 229.683 745.932 228.552 745.932 227.336C745.932 226.248 745.74 225.267 745.356 224.392C744.994 223.517 744.45 222.824 743.724 222.312C742.999 221.779 742.092 221.512 741.004 221.512C740.023 221.512 739.074 221.736 738.156 222.184C737.239 222.611 736.407 223.219 735.66 224.008C734.935 224.797 734.359 225.715 733.932 226.76C733.506 227.805 733.292 228.936 733.292 230.152C733.292 231.219 733.474 232.189 733.836 233.064C734.199 233.939 734.743 234.632 735.468 235.144C736.215 235.635 737.132 235.88 738.22 235.88Z" fill="#F4F6F7" fill-opacity="0.8"/>
<path d="M754.839 237.32C752.258 237.32 750.967 235.869 750.967 232.968C750.967 232.52 750.999 232.051 751.063 231.56C751.127 231.069 751.212 230.536 751.319 229.96L753.399 220.36H754.967L752.983 229.736C752.748 230.76 752.631 231.667 752.631 232.456C752.631 234.739 753.623 235.88 755.607 235.88C756.503 235.88 757.399 235.677 758.295 235.272C759.191 234.845 760.034 234.259 760.823 233.512C761.612 232.744 762.263 231.859 762.775 230.856L764.983 220.36H766.583L763.639 234.28C763.596 234.451 763.554 234.611 763.511 234.76C763.49 234.909 763.479 235.005 763.479 235.048C763.479 235.389 763.66 235.56 764.023 235.56L763.703 237C763.554 237 763.415 237 763.287 237C763.18 237.021 763.084 237.032 762.999 237.032C762.658 236.989 762.391 236.872 762.199 236.68C762.028 236.488 761.943 236.232 761.943 235.912C761.943 235.827 761.954 235.72 761.975 235.592C761.996 235.443 762.039 235.176 762.103 234.792C762.188 234.408 762.316 233.832 762.487 233.064C761.506 234.387 760.332 235.432 758.967 236.2C757.602 236.947 756.226 237.32 754.839 237.32Z" fill="#F4F6F7" fill-opacity="0.8"/>
<path d="M775.4 237.32C774.098 237.32 772.978 237.011 772.04 236.392C771.101 235.752 770.376 234.899 769.864 233.832C769.373 232.765 769.128 231.581 769.128 230.28C769.128 228.893 769.384 227.592 769.896 226.376C770.429 225.16 771.144 224.083 772.04 223.144C772.957 222.184 774.002 221.437 775.176 220.904C776.37 220.349 777.629 220.072 778.952 220.072C780.424 220.072 781.629 220.424 782.568 221.128C783.528 221.811 784.157 222.749 784.456 223.944L782.76 224.456C782.504 223.517 782.024 222.792 781.32 222.28C780.616 221.768 779.773 221.512 778.792 221.512C777.768 221.512 776.776 221.736 775.816 222.184C774.856 222.632 774.002 223.251 773.256 224.04C772.509 224.829 771.901 225.736 771.432 226.76C770.984 227.784 770.76 228.872 770.76 230.024C770.76 231.133 770.962 232.125 771.368 233C771.794 233.875 772.36 234.579 773.064 235.112C773.789 235.624 774.621 235.88 775.56 235.88C776.306 235.88 777.053 235.741 777.8 235.464C778.546 235.165 779.218 234.781 779.816 234.312C780.434 233.843 780.882 233.341 781.16 232.808L782.632 233.256C782.205 234.045 781.608 234.749 780.84 235.368C780.072 235.965 779.208 236.445 778.248 236.808C777.309 237.149 776.36 237.32 775.4 237.32Z" fill="#F4F6F7" fill-opacity="0.8"/>
<path d="M790.966 213.64H792.566L790.294 224.328C791.212 223.027 792.321 221.992 793.622 221.224C794.924 220.456 796.236 220.072 797.558 220.072C798.433 220.072 799.148 220.243 799.703 220.584C800.279 220.925 800.694 221.416 800.951 222.056C801.228 222.696 801.367 223.475 801.367 224.392C801.367 224.84 801.335 225.32 801.271 225.832C801.228 226.344 801.143 226.877 801.015 227.432L798.998 237H797.398L799.351 227.72C799.457 227.208 799.532 226.728 799.575 226.28C799.639 225.832 799.67 225.427 799.67 225.064C799.67 223.891 799.425 223.016 798.935 222.44C798.444 221.843 797.718 221.544 796.758 221.544C795.926 221.544 795.063 221.768 794.167 222.216C793.271 222.664 792.428 223.283 791.638 224.072C790.87 224.84 790.252 225.715 789.782 226.696L787.607 237H786.006L790.966 213.64Z" fill="#F4F6F7" fill-opacity="0.8"/>
<path d="M811.247 237.32C809.924 237.32 808.783 237 807.823 236.36C806.884 235.72 806.159 234.867 805.647 233.8C805.135 232.733 804.868 231.56 804.847 230.28C804.825 228.979 805.039 227.72 805.487 226.504C805.956 225.288 806.617 224.2 807.471 223.24C808.345 222.259 809.359 221.491 810.511 220.936C811.684 220.36 812.964 220.072 814.351 220.072C815.353 220.072 816.26 220.243 817.071 220.584C817.903 220.925 818.553 221.427 819.023 222.088C819.513 222.749 819.769 223.592 819.791 224.616C819.812 226.301 819.108 227.507 817.679 228.232C816.271 228.957 814.095 229.32 811.151 229.32C810.425 229.32 809.636 229.309 808.783 229.288C807.929 229.245 806.969 229.181 805.903 229.096L806.191 227.912C807.279 227.976 808.217 228.029 809.007 228.072C809.796 228.093 810.543 228.104 811.247 228.104C813.039 228.104 814.447 227.976 815.471 227.72C816.495 227.443 817.22 227.048 817.647 226.536C818.095 226.003 818.308 225.363 818.287 224.616C818.287 223.848 818.084 223.229 817.679 222.76C817.295 222.291 816.793 221.949 816.175 221.736C815.556 221.501 814.895 221.384 814.191 221.384C813.06 221.384 812.015 221.64 811.055 222.152C810.116 222.643 809.295 223.315 808.591 224.168C807.908 225 807.385 225.928 807.023 226.952C806.66 227.976 806.479 229.011 806.479 230.056C806.5 231.165 806.703 232.179 807.087 233.096C807.492 233.992 808.068 234.707 808.815 235.24C809.561 235.773 810.479 236.04 811.567 236.04C812.804 236.04 813.924 235.741 814.927 235.144C815.929 234.525 816.708 233.704 817.263 232.68L818.639 233.096C818.169 233.928 817.561 234.664 816.815 235.304C816.068 235.944 815.225 236.445 814.287 236.808C813.348 237.149 812.335 237.32 811.247 237.32Z" fill="#F4F6F7" fill-opacity="0.8"/>
<path d="M820.694 235.848L834.774 221.608H823.926L824.214 220.36H836.886L836.63 221.512L822.614 235.752H833.59L833.302 237H820.438L820.694 235.848Z" fill="#F4F6F7" fill-opacity="0.8"/>
<path d="M849.01 237.192C848.284 237.192 847.719 237 847.314 236.616C846.908 236.211 846.706 235.667 846.706 234.984C846.706 234.856 846.716 234.728 846.738 234.6C846.759 234.451 846.78 234.312 846.802 234.184L851.154 213.64H852.754L848.498 233.704C848.476 233.811 848.455 233.907 848.434 233.992C848.434 234.077 848.434 234.173 848.434 234.28C848.434 235.24 848.956 235.72 850.002 235.72C850.236 235.72 850.514 235.688 850.834 235.624C851.154 235.56 851.452 235.485 851.73 235.4V236.68C851.367 236.808 850.919 236.925 850.386 237.032C849.852 237.139 849.394 237.192 849.01 237.192Z" fill="#F4F6F7" fill-opacity="0.8"/>
<path d="M857.755 219.752L858.939 214.152H860.379L859.163 219.752H857.755Z" fill="#F4F6F7" fill-opacity="0.8"/>
<path d="M864.335 220.36H865.935L862.415 237H860.815L864.335 220.36ZM865.775 213.64H867.375L866.767 216.584H865.167L865.775 213.64Z" fill="#F4F6F7" fill-opacity="0.8"/>
<path d="M871.413 220.36H872.917L872.053 224.328C872.671 223.475 873.397 222.739 874.229 222.12C875.061 221.48 875.957 220.979 876.917 220.616C877.877 220.253 878.815 220.072 879.733 220.072C880.586 220.072 881.269 220.232 881.781 220.552C882.314 220.851 882.698 221.299 882.933 221.896C883.189 222.493 883.317 223.219 883.317 224.072C883.317 224.563 883.274 225.085 883.189 225.64C883.125 226.195 883.029 226.792 882.901 227.432L880.885 237H879.285L881.237 227.72C881.365 227.123 881.45 226.579 881.493 226.088C881.557 225.597 881.589 225.149 881.589 224.744C881.589 223.656 881.365 222.856 880.917 222.344C880.49 221.811 879.829 221.544 878.933 221.544C878.058 221.544 877.151 221.768 876.213 222.216C875.274 222.664 874.399 223.283 873.589 224.072C872.799 224.84 872.159 225.715 871.669 226.696L869.493 237H867.893L871.413 220.36Z" fill="#F4F6F7" fill-opacity="0.8"/>
<path d="M887.381 220.36H889.045L891.285 235.4C892.267 234.205 893.163 232.979 893.973 231.72C894.784 230.461 895.52 229.181 896.181 227.88C896.864 226.579 897.461 225.299 897.973 224.04C898.507 222.76 898.944 221.533 899.285 220.36H900.821C900.011 223.133 898.848 225.928 897.333 228.744C895.84 231.539 893.963 234.291 891.701 237H890.037L887.381 220.36Z" fill="#F4F6F7" fill-opacity="0.8"/>
<path d="M905.224 220.36H906.824L903.304 237H901.704L905.224 220.36ZM906.664 213.64H908.264L907.656 216.584H906.056L906.664 213.64Z" fill="#F4F6F7" fill-opacity="0.8"/>
<path d="M913.805 237.32C912.547 237.32 911.395 237.107 910.349 236.68C909.325 236.253 908.494 235.613 907.854 234.76L908.846 233.672C909.55 234.461 910.317 235.048 911.149 235.432C911.981 235.816 912.92 236.008 913.966 236.008C915.011 236.008 915.928 235.848 916.718 235.528C917.528 235.208 918.168 234.749 918.638 234.152C919.107 233.555 919.341 232.861 919.341 232.072C919.341 231.219 918.968 230.611 918.221 230.248C917.475 229.885 916.408 229.512 915.021 229.128C914.04 228.851 913.208 228.595 912.526 228.36C911.864 228.104 911.363 227.773 911.021 227.368C910.701 226.963 910.542 226.408 910.542 225.704C910.542 224.488 910.851 223.464 911.469 222.632C912.109 221.8 912.952 221.171 913.997 220.744C915.043 220.296 916.195 220.072 917.453 220.072C918.733 220.072 919.8 220.296 920.654 220.744C921.528 221.171 922.147 221.725 922.51 222.408L921.453 223.272C921.091 222.632 920.536 222.163 919.789 221.864C919.043 221.544 918.2 221.384 917.261 221.384C916.408 221.384 915.587 221.523 914.797 221.8C914.008 222.077 913.368 222.504 912.878 223.08C912.387 223.656 912.141 224.392 912.141 225.288C912.141 226.035 912.419 226.568 912.974 226.888C913.55 227.187 914.456 227.496 915.693 227.816C916.781 228.115 917.72 228.424 918.51 228.744C919.299 229.043 919.907 229.427 920.333 229.896C920.76 230.365 920.974 231.005 920.974 231.816C920.974 232.925 920.664 233.896 920.046 234.728C919.448 235.56 918.606 236.2 917.518 236.648C916.451 237.096 915.213 237.32 913.805 237.32Z" fill="#F4F6F7" fill-opacity="0.8"/>
<path d="M927.692 220.36H929.292L925.771 237H924.172L927.692 220.36ZM929.132 213.64H930.732L930.123 216.584H928.523L929.132 213.64Z" fill="#F4F6F7" fill-opacity="0.8"/>
<path d="M938.705 237.32C937.34 237.32 936.209 236.968 935.313 236.264C934.417 235.539 933.777 234.675 933.393 233.672L932.689 237H931.249L936.209 213.64H937.809L935.601 223.976C936.604 222.824 937.681 221.885 938.833 221.16C940.006 220.435 941.244 220.072 942.545 220.072C943.825 220.072 944.881 220.403 945.713 221.064C946.566 221.725 947.196 222.579 947.601 223.624C948.028 224.669 948.241 225.768 948.241 226.92C948.241 228.285 947.964 229.587 947.409 230.824C946.876 232.061 946.15 233.171 945.233 234.152C944.337 235.133 943.324 235.912 942.193 236.488C941.062 237.043 939.9 237.32 938.705 237.32ZM938.705 235.88C939.708 235.88 940.678 235.645 941.617 235.176C942.556 234.685 943.388 234.024 944.113 233.192C944.86 232.339 945.446 231.4 945.873 230.376C946.321 229.331 946.545 228.253 946.545 227.144C946.545 226.163 946.364 225.245 946.001 224.392C945.638 223.539 945.105 222.845 944.401 222.312C943.718 221.779 942.865 221.512 941.841 221.512C940.988 221.512 940.156 221.715 939.345 222.12C938.556 222.504 937.82 223.016 937.137 223.656C936.454 224.296 935.814 225 935.217 225.768L933.937 231.912C934.022 232.68 934.289 233.373 934.737 233.992C935.185 234.589 935.75 235.059 936.433 235.4C937.137 235.72 937.894 235.88 938.705 235.88Z" fill="#F4F6F7" fill-opacity="0.8"/>
<path d="M953.551 237.192C952.826 237.192 952.26 237 951.855 236.616C951.45 236.211 951.247 235.667 951.247 234.984C951.247 234.856 951.258 234.728 951.279 234.6C951.3 234.451 951.322 234.312 951.343 234.184L955.695 213.64H957.295L953.039 233.704C953.018 233.811 952.996 233.907 952.975 233.992C952.975 234.077 952.975 234.173 952.975 234.28C952.975 235.24 953.498 235.72 954.543 235.72C954.778 235.72 955.055 235.688 955.375 235.624C955.695 235.56 955.994 235.485 956.271 235.4V236.68C955.908 236.808 955.46 236.925 954.927 237.032C954.394 237.139 953.935 237.192 953.551 237.192Z" fill="#F4F6F7" fill-opacity="0.8"/>
<path d="M966.036 237.32C964.713 237.32 963.572 237 962.612 236.36C961.673 235.72 960.947 234.867 960.435 233.8C959.923 232.733 959.657 231.56 959.635 230.28C959.614 228.979 959.828 227.72 960.276 226.504C960.745 225.288 961.406 224.2 962.26 223.24C963.134 222.259 964.147 221.491 965.299 220.936C966.473 220.36 967.753 220.072 969.14 220.072C970.142 220.072 971.049 220.243 971.859 220.584C972.691 220.925 973.342 221.427 973.812 222.088C974.302 222.749 974.558 223.592 974.58 224.616C974.601 226.301 973.897 227.507 972.468 228.232C971.06 228.957 968.884 229.32 965.94 229.32C965.214 229.32 964.425 229.309 963.571 229.288C962.718 229.245 961.758 229.181 960.692 229.096L960.979 227.912C962.067 227.976 963.006 228.029 963.796 228.072C964.585 228.093 965.332 228.104 966.036 228.104C967.828 228.104 969.236 227.976 970.26 227.72C971.284 227.443 972.009 227.048 972.435 226.536C972.883 226.003 973.097 225.363 973.076 224.616C973.076 223.848 972.873 223.229 972.468 222.76C972.084 222.291 971.582 221.949 970.964 221.736C970.345 221.501 969.683 221.384 968.979 221.384C967.849 221.384 966.804 221.64 965.844 222.152C964.905 222.643 964.084 223.315 963.38 224.168C962.697 225 962.174 225.928 961.812 226.952C961.449 227.976 961.268 229.011 961.268 230.056C961.289 231.165 961.491 232.179 961.875 233.096C962.281 233.992 962.857 234.707 963.604 235.24C964.35 235.773 965.268 236.04 966.356 236.04C967.593 236.04 968.713 235.741 969.716 235.144C970.718 234.525 971.497 233.704 972.052 232.68L973.427 233.096C972.958 233.928 972.35 234.664 971.604 235.304C970.857 235.944 970.014 236.445 969.076 236.808C968.137 237.149 967.124 237.32 966.036 237.32Z" fill="#F4F6F7" fill-opacity="0.8"/>
<path d="M976.859 239.592L977.851 237.064H977.275L977.851 234.28H979.483L978.875 237.064L977.723 239.592H976.859Z" fill="#F4F6F7" fill-opacity="0.8"/>
<path d="M996.219 220.36H997.755L996.859 224.456C997.712 223.219 998.683 222.248 999.771 221.544C1000.86 220.819 1001.95 220.424 1003.03 220.36C1003.18 220.339 1003.32 220.339 1003.45 220.36C1003.58 220.36 1003.69 220.36 1003.77 220.36L1003.45 221.8C1002.04 221.843 1000.71 222.291 999.451 223.144C998.214 223.976 997.232 225.128 996.507 226.6L994.299 237H992.699L996.219 220.36Z" fill="#F4F6F7" fill-opacity="0.8"/>
<path d="M1010.31 237.32C1008.99 237.32 1007.85 237 1006.89 236.36C1005.95 235.72 1005.23 234.867 1004.71 233.8C1004.2 232.733 1003.94 231.56 1003.91 230.28C1003.89 228.979 1004.11 227.72 1004.55 226.504C1005.02 225.288 1005.68 224.2 1006.54 223.24C1007.41 222.259 1008.43 221.491 1009.58 220.936C1010.75 220.36 1012.03 220.072 1013.42 220.072C1014.42 220.072 1015.33 220.243 1016.14 220.584C1016.97 220.925 1017.62 221.427 1018.09 222.088C1018.58 222.749 1018.84 223.592 1018.86 224.616C1018.88 226.301 1018.18 227.507 1016.75 228.232C1015.34 228.957 1013.16 229.32 1010.22 229.32C1009.49 229.32 1008.7 229.309 1007.85 229.288C1007 229.245 1006.04 229.181 1004.97 229.096L1005.26 227.912C1006.35 227.976 1007.28 228.029 1008.07 228.072C1008.86 228.093 1009.61 228.104 1010.31 228.104C1012.11 228.104 1013.51 227.976 1014.54 227.72C1015.56 227.443 1016.29 227.048 1016.71 226.536C1017.16 226.003 1017.38 225.363 1017.35 224.616C1017.35 223.848 1017.15 223.229 1016.75 222.76C1016.36 222.291 1015.86 221.949 1015.24 221.736C1014.62 221.501 1013.96 221.384 1013.26 221.384C1012.13 221.384 1011.08 221.64 1010.12 222.152C1009.18 222.643 1008.36 223.315 1007.66 224.168C1006.98 225 1006.45 225.928 1006.09 226.952C1005.73 227.976 1005.55 229.011 1005.55 230.056C1005.57 231.165 1005.77 232.179 1006.15 233.096C1006.56 233.992 1007.14 234.707 1007.88 235.24C1008.63 235.773 1009.55 236.04 1010.63 236.04C1011.87 236.04 1012.99 235.741 1013.99 235.144C1015 234.525 1015.78 233.704 1016.33 232.68L1017.71 233.096C1017.24 233.928 1016.63 234.664 1015.88 235.304C1015.14 235.944 1014.29 236.445 1013.35 236.808C1012.42 237.149 1011.4 237.32 1010.31 237.32Z" fill="#F4F6F7" fill-opacity="0.8"/>
<path d="M1026.07 237.32C1024.81 237.32 1023.65 237.107 1022.61 236.68C1021.59 236.253 1020.75 235.613 1020.11 234.76L1021.11 233.672C1021.81 234.461 1022.58 235.048 1023.41 235.432C1024.24 235.816 1025.18 236.008 1026.23 236.008C1027.27 236.008 1028.19 235.848 1028.98 235.528C1029.79 235.208 1030.43 234.749 1030.9 234.152C1031.37 233.555 1031.6 232.861 1031.6 232.072C1031.6 231.219 1031.23 230.611 1030.48 230.248C1029.73 229.885 1028.67 229.512 1027.28 229.128C1026.3 228.851 1025.47 228.595 1024.79 228.36C1024.12 228.104 1023.62 227.773 1023.28 227.368C1022.96 226.963 1022.8 226.408 1022.8 225.704C1022.8 224.488 1023.11 223.464 1023.73 222.632C1024.37 221.8 1025.21 221.171 1026.26 220.744C1027.3 220.296 1028.45 220.072 1029.71 220.072C1030.99 220.072 1032.06 220.296 1032.91 220.744C1033.79 221.171 1034.41 221.725 1034.77 222.408L1033.71 223.272C1033.35 222.632 1032.8 222.163 1032.05 221.864C1031.3 221.544 1030.46 221.384 1029.52 221.384C1028.67 221.384 1027.85 221.523 1027.06 221.8C1026.27 222.077 1025.63 222.504 1025.14 223.08C1024.65 223.656 1024.4 224.392 1024.4 225.288C1024.4 226.035 1024.68 226.568 1025.23 226.888C1025.81 227.187 1026.72 227.496 1027.95 227.816C1029.04 228.115 1029.98 228.424 1030.77 228.744C1031.56 229.043 1032.17 229.427 1032.59 229.896C1033.02 230.365 1033.23 231.005 1033.23 231.816C1033.23 232.925 1032.92 233.896 1032.31 234.728C1031.71 235.56 1030.87 236.2 1029.78 236.648C1028.71 237.096 1027.47 237.32 1026.07 237.32Z" fill="#F4F6F7" fill-opacity="0.8"/>
<path d="M1041.46 237.32C1040.2 237.32 1039.04 237.107 1038 236.68C1036.98 236.253 1036.14 235.613 1035.5 234.76L1036.5 233.672C1037.2 234.461 1037.97 235.048 1038.8 235.432C1039.63 235.816 1040.57 236.008 1041.62 236.008C1042.66 236.008 1043.58 235.848 1044.37 235.528C1045.18 235.208 1045.82 234.749 1046.29 234.152C1046.76 233.555 1046.99 232.861 1046.99 232.072C1046.99 231.219 1046.62 230.611 1045.87 230.248C1045.12 229.885 1044.06 229.512 1042.67 229.128C1041.69 228.851 1040.86 228.595 1040.18 228.36C1039.51 228.104 1039.01 227.773 1038.67 227.368C1038.35 226.963 1038.19 226.408 1038.19 225.704C1038.19 224.488 1038.5 223.464 1039.12 222.632C1039.76 221.8 1040.6 221.171 1041.65 220.744C1042.69 220.296 1043.84 220.072 1045.1 220.072C1046.38 220.072 1047.45 220.296 1048.3 220.744C1049.18 221.171 1049.8 221.725 1050.16 222.408L1049.1 223.272C1048.74 222.632 1048.19 222.163 1047.44 221.864C1046.69 221.544 1045.85 221.384 1044.91 221.384C1044.06 221.384 1043.24 221.523 1042.45 221.8C1041.66 222.077 1041.02 222.504 1040.53 223.08C1040.04 223.656 1039.79 224.392 1039.79 225.288C1039.79 226.035 1040.07 226.568 1040.62 226.888C1041.2 227.187 1042.11 227.496 1043.34 227.816C1044.43 228.115 1045.37 228.424 1046.16 228.744C1046.95 229.043 1047.56 229.427 1047.98 229.896C1048.41 230.365 1048.62 231.005 1048.62 231.816C1048.62 232.925 1048.31 233.896 1047.7 234.728C1047.1 235.56 1046.26 236.2 1045.17 236.648C1044.1 237.096 1042.86 237.32 1041.46 237.32Z" fill="#F4F6F7" fill-opacity="0.8"/>
<path d="M1058.77 237.32C1057.44 237.32 1056.3 237 1055.34 236.36C1054.4 235.72 1053.68 234.867 1053.17 233.8C1052.65 232.733 1052.39 231.56 1052.37 230.28C1052.34 228.979 1052.56 227.72 1053.01 226.504C1053.47 225.288 1054.14 224.2 1054.99 223.24C1055.86 222.259 1056.88 221.491 1058.03 220.936C1059.2 220.36 1060.48 220.072 1061.87 220.072C1062.87 220.072 1063.78 220.243 1064.59 220.584C1065.42 220.925 1066.07 221.427 1066.54 222.088C1067.03 222.749 1067.29 223.592 1067.31 224.616C1067.33 226.301 1066.63 227.507 1065.2 228.232C1063.79 228.957 1061.61 229.32 1058.67 229.32C1057.94 229.32 1057.15 229.309 1056.3 229.288C1055.45 229.245 1054.49 229.181 1053.42 229.096L1053.71 227.912C1054.8 227.976 1055.74 228.029 1056.53 228.072C1057.31 228.093 1058.06 228.104 1058.77 228.104C1060.56 228.104 1061.97 227.976 1062.99 227.72C1064.01 227.443 1064.74 227.048 1065.17 226.536C1065.61 226.003 1065.83 225.363 1065.81 224.616C1065.81 223.848 1065.6 223.229 1065.2 222.76C1064.81 222.291 1064.31 221.949 1063.69 221.736C1063.07 221.501 1062.41 221.384 1061.71 221.384C1060.58 221.384 1059.53 221.64 1058.57 222.152C1057.63 222.643 1056.81 223.315 1056.11 224.168C1055.43 225 1054.9 225.928 1054.54 226.952C1054.18 227.976 1054 229.011 1054 230.056C1054.02 231.165 1054.22 232.179 1054.61 233.096C1055.01 233.992 1055.59 234.707 1056.33 235.24C1057.08 235.773 1058 236.04 1059.09 236.04C1060.32 236.04 1061.44 235.741 1062.45 235.144C1063.45 234.525 1064.23 233.704 1064.78 232.68L1066.16 233.096C1065.69 233.928 1065.08 234.664 1064.33 235.304C1063.59 235.944 1062.74 236.445 1061.81 236.808C1060.87 237.149 1059.85 237.32 1058.77 237.32Z" fill="#F4F6F7" fill-opacity="0.8"/>
<path d="M1073.01 220.36H1074.52L1073.65 224.328C1074.27 223.475 1075 222.739 1075.83 222.12C1076.66 221.48 1077.56 220.979 1078.52 220.616C1079.48 220.253 1080.42 220.072 1081.33 220.072C1082.19 220.072 1082.87 220.232 1083.38 220.552C1083.91 220.851 1084.3 221.299 1084.53 221.896C1084.79 222.493 1084.92 223.219 1084.92 224.072C1084.92 224.563 1084.87 225.085 1084.79 225.64C1084.72 226.195 1084.63 226.792 1084.5 227.432L1082.48 237H1080.88L1082.84 227.72C1082.96 227.123 1083.05 226.579 1083.09 226.088C1083.16 225.597 1083.19 225.149 1083.19 224.744C1083.19 223.656 1082.96 222.856 1082.52 222.344C1082.09 221.811 1081.43 221.544 1080.53 221.544C1079.66 221.544 1078.75 221.768 1077.81 222.216C1076.87 222.664 1076 223.283 1075.19 224.072C1074.4 224.84 1073.76 225.715 1073.27 226.696L1071.09 237H1069.49L1073.01 220.36Z" fill="#F4F6F7" fill-opacity="0.8"/>
<path d="M1088.75 234.92C1088.75 234.813 1088.75 234.696 1088.75 234.568C1088.77 234.44 1088.8 234.323 1088.82 234.216L1091.51 221.672H1089.27L1089.55 220.36H1091.79L1092.98 214.664H1094.58L1093.39 220.36H1097.07L1096.79 221.672H1093.11L1090.71 232.936C1090.62 233.299 1090.56 233.576 1090.51 233.768C1090.49 233.939 1090.48 234.088 1090.48 234.216C1090.48 234.707 1090.64 235.08 1090.96 235.336C1091.28 235.571 1091.65 235.688 1092.08 235.688C1092.51 235.688 1092.9 235.635 1093.27 235.528C1093.63 235.4 1093.94 235.283 1094.19 235.176C1094.47 235.048 1094.64 234.963 1094.71 234.92L1094.9 236.2C1094.79 236.285 1094.56 236.413 1094.19 236.584C1093.85 236.733 1093.44 236.872 1092.95 237C1092.45 237.128 1091.92 237.192 1091.35 237.192C1090.6 237.192 1089.98 237 1089.49 236.616C1089 236.211 1088.75 235.645 1088.75 234.92Z" fill="#F4F6F7" fill-opacity="0.8"/>
<path d="M1104.65 237.32C1103.33 237.32 1102.19 237 1101.23 236.36C1100.29 235.72 1099.57 234.867 1099.05 233.8C1098.54 232.733 1098.28 231.56 1098.25 230.28C1098.23 228.979 1098.45 227.72 1098.89 226.504C1099.36 225.288 1100.02 224.2 1100.88 223.24C1101.75 222.259 1102.77 221.491 1103.92 220.936C1105.09 220.36 1106.37 220.072 1107.76 220.072C1108.76 220.072 1109.67 220.243 1110.48 220.584C1111.31 220.925 1111.96 221.427 1112.43 222.088C1112.92 222.749 1113.18 223.592 1113.2 224.616C1113.22 226.301 1112.52 227.507 1111.09 228.232C1109.68 228.957 1107.5 229.32 1104.56 229.32C1103.83 229.32 1103.04 229.309 1102.19 229.288C1101.34 229.245 1100.38 229.181 1099.31 229.096L1099.6 227.912C1100.69 227.976 1101.62 228.029 1102.41 228.072C1103.2 228.093 1103.95 228.104 1104.65 228.104C1106.45 228.104 1107.85 227.976 1108.88 227.72C1109.9 227.443 1110.63 227.048 1111.05 226.536C1111.5 226.003 1111.72 225.363 1111.69 224.616C1111.69 223.848 1111.49 223.229 1111.09 222.76C1110.7 222.291 1110.2 221.949 1109.58 221.736C1108.96 221.501 1108.3 221.384 1107.6 221.384C1106.47 221.384 1105.42 221.64 1104.46 222.152C1103.52 222.643 1102.7 223.315 1102 224.168C1101.32 225 1100.79 225.928 1100.43 226.952C1100.07 227.976 1099.89 229.011 1099.89 230.056C1099.91 231.165 1100.11 232.179 1100.49 233.096C1100.9 233.992 1101.48 234.707 1102.22 235.24C1102.97 235.773 1103.89 236.04 1104.97 236.04C1106.21 236.04 1107.33 235.741 1108.33 235.144C1109.34 234.525 1110.12 233.704 1110.67 232.68L1112.05 233.096C1111.58 233.928 1110.97 234.664 1110.22 235.304C1109.48 235.944 1108.63 236.445 1107.69 236.808C1106.76 237.149 1105.74 237.32 1104.65 237.32Z" fill="#F4F6F7" fill-opacity="0.8"/>
<path d="M1114.1 235.848L1128.18 221.608H1117.33L1117.62 220.36H1130.29L1130.04 221.512L1116.02 235.752H1127L1126.71 237H1113.85L1114.1 235.848Z" fill="#F4F6F7" fill-opacity="0.8"/>
<path d="M1142.42 237.192C1141.69 237.192 1141.13 237 1140.72 236.616C1140.32 236.211 1140.11 235.667 1140.11 234.984C1140.11 234.856 1140.12 234.728 1140.15 234.6C1140.17 234.451 1140.19 234.312 1140.21 234.184L1144.56 213.64H1146.16L1141.91 233.704C1141.88 233.811 1141.86 233.907 1141.84 233.992C1141.84 234.077 1141.84 234.173 1141.84 234.28C1141.84 235.24 1142.36 235.72 1143.41 235.72C1143.64 235.72 1143.92 235.688 1144.24 235.624C1144.56 235.56 1144.86 235.485 1145.14 235.4V236.68C1144.77 236.808 1144.33 236.925 1143.79 237.032C1143.26 237.139 1142.8 237.192 1142.42 237.192Z" fill="#F4F6F7" fill-opacity="0.8"/>
<path d="M1151.16 219.752L1152.35 214.152H1153.79L1152.57 219.752H1151.16Z" fill="#F4F6F7" fill-opacity="0.8"/>
<path d="M1157.74 220.36H1159.34L1155.82 237H1154.22L1157.74 220.36ZM1159.18 213.64H1160.78L1160.17 216.584H1158.57L1159.18 213.64Z" fill="#F4F6F7" fill-opacity="0.8"/>
<path d="M1164.82 220.36H1166.32L1165.46 224.328C1166.08 223.475 1166.8 222.739 1167.64 222.12C1168.47 221.48 1169.36 220.979 1170.32 220.616C1171.28 220.253 1172.22 220.072 1173.14 220.072C1173.99 220.072 1174.68 220.232 1175.19 220.552C1175.72 220.851 1176.11 221.299 1176.34 221.896C1176.6 222.493 1176.72 223.219 1176.72 224.072C1176.72 224.563 1176.68 225.085 1176.6 225.64C1176.53 226.195 1176.44 226.792 1176.31 227.432L1174.29 237H1172.69L1174.64 227.72C1174.77 227.123 1174.86 226.579 1174.9 226.088C1174.96 225.597 1175 225.149 1175 224.744C1175 223.656 1174.77 222.856 1174.32 222.344C1173.9 221.811 1173.24 221.544 1172.34 221.544C1171.47 221.544 1170.56 221.768 1169.62 222.216C1168.68 222.664 1167.81 223.283 1167 224.072C1166.21 224.84 1165.57 225.715 1165.08 226.696L1162.9 237H1161.3L1164.82 220.36Z" fill="#F4F6F7" fill-opacity="0.8"/>
<path d="M1183.31 221.672H1181.1L1181.39 220.36H1183.63L1183.73 219.816C1184.01 218.451 1184.42 217.288 1184.98 216.328C1185.55 215.347 1186.23 214.6 1187.02 214.088C1187.81 213.576 1188.68 213.32 1189.62 213.32C1190.21 213.32 1190.77 213.416 1191.28 213.608C1191.81 213.8 1192.24 214.056 1192.56 214.376L1191.73 215.528C1191.51 215.272 1191.21 215.08 1190.8 214.952C1190.42 214.803 1190.01 214.728 1189.58 214.728C1188.56 214.728 1187.67 215.165 1186.93 216.04C1186.2 216.893 1185.67 218.141 1185.33 219.784L1185.23 220.36H1189.68L1189.39 221.672H1184.91L1180.24 243.816H1178.64L1183.31 221.672Z" fill="#F4F6F7" fill-opacity="0.8"/>
<path d="M1196.33 237.32C1194.92 237.32 1193.75 237.011 1192.81 236.392C1191.89 235.752 1191.2 234.909 1190.73 233.864C1190.26 232.797 1190.03 231.635 1190.03 230.376C1190.03 228.947 1190.28 227.613 1190.8 226.376C1191.33 225.117 1192.04 224.019 1192.94 223.08C1193.84 222.141 1194.86 221.405 1196.01 220.872C1197.19 220.339 1198.4 220.072 1199.66 220.072C1201.07 220.072 1202.24 220.392 1203.18 221.032C1204.12 221.672 1204.81 222.525 1205.26 223.592C1205.73 224.637 1205.96 225.8 1205.96 227.08C1205.96 228.488 1205.71 229.811 1205.2 231.048C1204.68 232.285 1203.98 233.384 1203.08 234.344C1202.19 235.283 1201.16 236.019 1200.01 236.552C1198.86 237.064 1197.63 237.32 1196.33 237.32ZM1196.62 235.88C1197.6 235.88 1198.55 235.667 1199.47 235.24C1200.39 234.813 1201.21 234.216 1201.93 233.448C1202.68 232.659 1203.27 231.752 1203.69 230.728C1204.12 229.683 1204.33 228.552 1204.33 227.336C1204.33 226.248 1204.14 225.267 1203.76 224.392C1203.39 223.517 1202.85 222.824 1202.12 222.312C1201.4 221.779 1200.49 221.512 1199.4 221.512C1198.42 221.512 1197.47 221.736 1196.56 222.184C1195.64 222.611 1194.81 223.219 1194.06 224.008C1193.33 224.797 1192.76 225.715 1192.33 226.76C1191.91 227.805 1191.69 228.936 1191.69 230.152C1191.69 231.219 1191.87 232.189 1192.24 233.064C1192.6 233.939 1193.14 234.632 1193.87 235.144C1194.61 235.635 1195.53 235.88 1196.62 235.88Z" fill="#F4F6F7" fill-opacity="0.8"/>
<path d="M1211.96 220.36H1213.49L1212.6 224.456C1213.45 223.219 1214.42 222.248 1215.51 221.544C1216.6 220.819 1217.69 220.424 1218.77 220.36C1218.92 220.339 1219.06 220.339 1219.19 220.36C1219.32 220.36 1219.43 220.36 1219.51 220.36L1219.19 221.8C1217.78 221.843 1216.45 222.291 1215.19 223.144C1213.95 223.976 1212.97 225.128 1212.25 226.6L1210.04 237H1208.44L1211.96 220.36Z" fill="#F4F6F7" fill-opacity="0.8"/>
<path d="M1223.26 220.36H1224.76L1223.9 224.328C1224.83 222.984 1225.91 221.939 1227.13 221.192C1228.36 220.445 1229.6 220.072 1230.84 220.072C1231.69 220.072 1232.41 220.253 1232.98 220.616C1233.56 220.979 1233.99 221.501 1234.26 222.184C1234.56 222.867 1234.68 223.699 1234.62 224.68C1235.21 223.677 1235.9 222.835 1236.66 222.152C1237.43 221.469 1238.25 220.957 1239.13 220.616C1240.02 220.253 1240.91 220.072 1241.78 220.072C1242.64 220.072 1243.33 220.243 1243.86 220.584C1244.4 220.904 1244.79 221.373 1245.05 221.992C1245.3 222.589 1245.43 223.325 1245.43 224.2C1245.43 224.669 1245.4 225.171 1245.34 225.704C1245.27 226.237 1245.18 226.813 1245.05 227.432L1243 237H1241.4L1243.38 227.72C1243.6 226.611 1243.7 225.661 1243.7 224.872C1243.7 223.763 1243.47 222.931 1243 222.376C1242.55 221.821 1241.87 221.544 1240.95 221.544C1240.1 221.544 1239.26 221.768 1238.42 222.216C1237.59 222.643 1236.82 223.24 1236.12 224.008C1235.42 224.776 1234.82 225.683 1234.33 226.728L1232.18 237H1230.58L1232.54 227.72C1232.66 227.144 1232.75 226.621 1232.79 226.152C1232.86 225.661 1232.89 225.213 1232.89 224.808C1232.89 223.699 1232.66 222.877 1232.22 222.344C1231.77 221.811 1231.08 221.544 1230.17 221.544C1228.89 221.544 1227.64 222.024 1226.42 222.984C1225.23 223.923 1224.26 225.16 1223.51 226.696L1221.34 237H1219.74L1223.26 220.36Z" fill="#F4F6F7" fill-opacity="0.8"/>
<path d="M1254.74 237.32C1253.53 237.32 1252.47 237 1251.58 236.36C1250.7 235.699 1250.02 234.835 1249.53 233.768C1249.06 232.701 1248.82 231.549 1248.82 230.312C1248.82 229.011 1249.08 227.752 1249.59 226.536C1250.1 225.32 1250.79 224.232 1251.64 223.272C1252.51 222.291 1253.51 221.512 1254.62 220.936C1255.73 220.36 1256.89 220.072 1258.1 220.072C1259.49 220.072 1260.63 220.456 1261.53 221.224C1262.42 221.992 1263.06 222.909 1263.45 223.976L1264.22 220.36H1265.85L1262.78 234.696C1262.75 234.76 1262.73 234.824 1262.71 234.888C1262.71 234.952 1262.71 235.016 1262.71 235.08C1262.71 235.4 1262.89 235.56 1263.26 235.56L1262.94 237C1262.81 237 1262.69 237.011 1262.58 237.032C1262.48 237.053 1262.38 237.053 1262.3 237.032C1261.91 237.011 1261.62 236.893 1261.43 236.68C1261.24 236.467 1261.14 236.211 1261.14 235.912C1261.14 235.805 1261.15 235.688 1261.18 235.56C1261.2 235.432 1261.23 235.229 1261.27 234.952C1261.34 234.653 1261.42 234.227 1261.53 233.672C1260.67 234.781 1259.63 235.667 1258.39 236.328C1257.18 236.989 1255.96 237.32 1254.74 237.32ZM1255.32 235.88C1255.92 235.88 1256.55 235.763 1257.21 235.528C1257.89 235.293 1258.54 234.973 1259.16 234.568C1259.8 234.141 1260.35 233.661 1260.82 233.128C1261.31 232.573 1261.67 231.997 1261.88 231.4L1263.03 225.928C1262.93 225.139 1262.65 224.413 1262.2 223.752C1261.75 223.091 1261.18 222.557 1260.47 222.152C1259.79 221.725 1259.02 221.512 1258.17 221.512C1257.17 221.512 1256.19 221.768 1255.26 222.28C1254.34 222.792 1253.52 223.464 1252.79 224.296C1252.09 225.128 1251.52 226.056 1251.1 227.08C1250.69 228.083 1250.49 229.096 1250.49 230.12C1250.49 231.165 1250.69 232.125 1251.1 233C1251.52 233.853 1252.1 234.547 1252.82 235.08C1253.55 235.613 1254.38 235.88 1255.32 235.88Z" fill="#F4F6F7" fill-opacity="0.8"/>
<path d="M1268.98 234.92C1268.98 234.813 1268.98 234.696 1268.98 234.568C1269 234.44 1269.02 234.323 1269.04 234.216L1271.73 221.672H1269.49L1269.78 220.36H1272.02L1273.2 214.664H1274.8L1273.62 220.36H1277.3L1277.01 221.672H1273.33L1270.93 232.936C1270.85 233.299 1270.78 233.576 1270.74 233.768C1270.72 233.939 1270.71 234.088 1270.71 234.216C1270.71 234.707 1270.87 235.08 1271.19 235.336C1271.51 235.571 1271.88 235.688 1272.31 235.688C1272.73 235.688 1273.13 235.635 1273.49 235.528C1273.85 235.4 1274.16 235.283 1274.42 235.176C1274.7 235.048 1274.87 234.963 1274.93 234.92L1275.12 236.2C1275.02 236.285 1274.78 236.413 1274.42 236.584C1274.08 236.733 1273.66 236.872 1273.17 237C1272.68 237.128 1272.15 237.192 1271.57 237.192C1270.83 237.192 1270.21 237 1269.72 236.616C1269.23 236.211 1268.98 235.645 1268.98 234.92Z" fill="#F4F6F7" fill-opacity="0.8"/>
<path d="M1281.77 220.36H1283.37L1279.85 237H1278.25L1281.77 220.36ZM1283.21 213.64H1284.81L1284.2 216.584H1282.6L1283.21 213.64Z" fill="#F4F6F7" fill-opacity="0.8"/>
<path d="M1292.08 237.32C1290.67 237.32 1289.5 237.011 1288.56 236.392C1287.64 235.752 1286.95 234.909 1286.48 233.864C1286.01 232.797 1285.77 231.635 1285.77 230.376C1285.77 228.947 1286.03 227.613 1286.54 226.376C1287.08 225.117 1287.79 224.019 1288.69 223.08C1289.58 222.141 1290.61 221.405 1291.76 220.872C1292.93 220.339 1294.15 220.072 1295.41 220.072C1296.81 220.072 1297.99 220.392 1298.93 221.032C1299.87 221.672 1300.56 222.525 1301.01 223.592C1301.48 224.637 1301.71 225.8 1301.71 227.08C1301.71 228.488 1301.45 229.811 1300.94 231.048C1300.43 232.285 1299.73 233.384 1298.83 234.344C1297.93 235.283 1296.91 236.019 1295.76 236.552C1294.61 237.064 1293.38 237.32 1292.08 237.32ZM1292.37 235.88C1293.35 235.88 1294.3 235.667 1295.21 235.24C1296.13 234.813 1296.95 234.216 1297.68 233.448C1298.43 232.659 1299.01 231.752 1299.44 230.728C1299.87 229.683 1300.08 228.552 1300.08 227.336C1300.08 226.248 1299.89 225.267 1299.5 224.392C1299.14 223.517 1298.6 222.824 1297.87 222.312C1297.15 221.779 1296.24 221.512 1295.15 221.512C1294.17 221.512 1293.22 221.736 1292.3 222.184C1291.39 222.611 1290.55 223.219 1289.81 224.008C1289.08 224.797 1288.51 225.715 1288.08 226.76C1287.65 227.805 1287.44 228.936 1287.44 230.152C1287.44 231.219 1287.62 232.189 1287.98 233.064C1288.35 233.939 1288.89 234.632 1289.61 235.144C1290.36 235.635 1291.28 235.88 1292.37 235.88Z" fill="#F4F6F7" fill-opacity="0.8"/>
<path d="M1307.71 220.36H1309.21L1308.35 224.328C1308.96 223.475 1309.69 222.739 1310.52 222.12C1311.35 221.48 1312.25 220.979 1313.21 220.616C1314.17 220.253 1315.11 220.072 1316.03 220.072C1316.88 220.072 1317.56 220.232 1318.07 220.552C1318.61 220.851 1318.99 221.299 1319.23 221.896C1319.48 222.493 1319.61 223.219 1319.61 224.072C1319.61 224.563 1319.57 225.085 1319.48 225.64C1319.42 226.195 1319.32 226.792 1319.19 227.432L1317.18 237H1315.58L1317.53 227.72C1317.66 227.123 1317.74 226.579 1317.79 226.088C1317.85 225.597 1317.88 225.149 1317.88 224.744C1317.88 223.656 1317.66 222.856 1317.21 222.344C1316.78 221.811 1316.12 221.544 1315.23 221.544C1314.35 221.544 1313.44 221.768 1312.51 222.216C1311.57 222.664 1310.69 223.283 1309.88 224.072C1309.09 224.84 1308.45 225.715 1307.96 226.696L1305.79 237H1304.19L1307.71 220.36Z" fill="#F4F6F7" fill-opacity="0.8"/>
<path d="M0.559998 192L1.328 187.904L20.784 177.664L45.616 37.376L27.184 27.136L27.952 23.04H88.88L88.112 27.136L67.376 37.376L42.544 177.664L62.256 187.904L61.488 192H0.559998Z" fill="#F4F6F7"/>
<path d="M97.388 192L115.052 92.416L95.084 83.456V81.92L131.436 74.24H132.204V101.12H133.228C139.201 94.464 144.492 89.1733 149.1 85.248C153.708 81.3226 158.145 78.5066 162.412 76.8C166.679 75.0933 171.628 74.24 177.26 74.24C185.623 74.24 192.023 77.6533 196.46 84.48C201.068 91.3066 202.348 100.523 200.3 112.128L191.34 161.536C190.487 166.656 190.316 170.325 190.828 172.544C191.511 174.763 192.961 175.872 195.18 175.872C198.081 175.872 201.239 174.336 204.652 171.264C208.065 168.021 211.308 163.157 214.38 156.672L217.708 158.208C212.759 171.008 207.383 180.309 201.58 186.112C195.948 191.744 190.145 194.56 184.172 194.56C178.199 194.56 174.103 192.256 171.884 187.648C169.665 183.04 169.239 176.896 170.604 169.216L180.588 112.896C181.441 106.923 180.673 101.632 178.284 97.024C176.065 92.2453 171.201 89.856 163.692 89.856C159.937 89.856 156.012 91.136 151.916 93.696C147.991 96.256 144.151 99.328 140.396 102.912C136.641 106.325 133.313 109.653 130.412 112.896L116.844 192H97.388Z" fill="#F4F6F7"/>
<path d="M258.226 194.56C249.522 194.56 242.439 193.365 236.978 190.976C231.517 188.416 227.591 185.259 225.202 181.504C224.178 179.968 223.495 178.688 223.154 177.664C222.813 176.64 222.642 175.531 222.642 174.336C222.642 173.312 222.813 172.288 223.154 171.264C223.495 170.069 224.349 169.131 225.714 168.448L231.346 165.376H233.138L237.49 172.8C240.05 177.067 243.463 180.309 247.73 182.528C251.997 184.576 256.263 185.6 260.53 185.6C267.015 185.6 272.306 183.893 276.402 180.48C280.669 177.067 282.802 172.117 282.802 165.632C282.802 158.976 280.583 153.856 276.146 150.272C271.879 146.688 267.015 143.275 261.554 140.032C255.069 136.107 250.205 132.523 246.962 129.28C243.719 126.037 241.501 122.709 240.306 119.296C239.111 115.883 238.514 111.787 238.514 107.008C238.514 102.059 240.391 97.1093 244.146 92.16C247.901 87.04 252.85 82.7733 258.994 79.36C265.138 75.9466 271.623 74.24 278.45 74.24C285.959 74.24 291.847 75.4346 296.114 77.824C300.381 80.0426 303.709 82.944 306.098 86.528C307.634 88.9173 308.402 91.136 308.402 93.184C308.402 94.3786 308.061 95.5733 307.378 96.768C306.866 97.9626 306.013 98.9013 304.818 99.584L299.954 102.144H298.162L292.53 94.208C290.141 90.7946 287.41 88.2346 284.338 86.528C281.437 84.6506 277.767 83.712 273.33 83.712C268.381 83.712 264.114 85.248 260.53 88.32C257.117 91.2213 255.41 95.0613 255.41 99.84C255.41 105.301 257.031 109.824 260.274 113.408C263.687 116.992 267.613 120.064 272.05 122.624C278.194 126.208 283.229 129.621 287.154 132.864C291.25 136.107 294.322 139.776 296.37 143.872C298.418 147.968 299.442 153.173 299.442 159.488C299.442 165.461 297.65 171.179 294.066 176.64C290.482 181.931 285.533 186.283 279.218 189.696C273.074 192.939 266.077 194.56 258.226 194.56Z" fill="#F4F6F7"/>
<path d="M365.116 42.24C361.191 42.24 357.777 40.7893 354.876 37.888C351.975 34.9866 350.524 31.5733 350.524 27.648C350.524 23.7226 351.975 20.3093 354.876 17.408C357.777 14.5066 361.191 13.056 365.116 13.056C369.041 13.056 372.455 14.5066 375.356 17.408C378.257 20.3093 379.708 23.7226 379.708 27.648C379.708 31.5733 378.257 34.9866 375.356 37.888C372.455 40.7893 369.041 42.24 365.116 42.24ZM346.94 194.56C340.967 194.56 336.871 192.256 334.652 187.648C332.433 183.04 332.007 176.896 333.372 169.216L346.94 92.16L324.668 83.456V81.92L368.956 74.24H369.724L354.108 161.536C353.255 166.656 353.084 170.325 353.596 172.544C354.108 174.763 355.559 175.872 357.948 175.872C360.849 175.872 364.007 174.336 367.42 171.264C370.833 168.021 374.076 163.157 377.148 156.672L380.476 158.208C375.527 171.008 370.151 180.309 364.348 186.112C358.716 191.744 352.913 194.56 346.94 194.56Z" fill="#F4F6F7"/>
<path d="M436.818 152.832C431.698 152.832 427.005 152.064 422.738 150.528C418.813 152.405 415.997 154.795 414.29 157.696C412.754 160.427 411.986 163.328 411.986 166.4C411.986 169.813 413.693 172.459 417.106 174.336C420.519 176.213 424.871 177.749 430.162 178.944C435.623 180.139 441.426 181.419 447.57 182.784C453.714 183.979 459.431 185.685 464.722 187.904C470.183 189.952 474.621 192.768 478.034 196.352C481.447 200.107 483.154 205.056 483.154 211.2C483.154 218.027 481.021 224.683 476.754 231.168C472.487 237.653 466.087 242.944 457.554 247.04C449.191 251.307 438.525 253.44 425.554 253.44C410.365 253.44 399.101 250.965 391.762 246.016C384.594 241.067 381.01 234.837 381.01 227.328C381.01 221.867 381.863 217.6 383.57 214.528C385.106 211.456 387.751 208.043 391.506 204.288L411.986 192.768V192.256C406.695 190.72 402.258 188.587 398.674 185.856C395.261 183.125 393.554 179.115 393.554 173.824C393.554 170.24 393.981 167.253 394.834 164.864C395.687 162.475 397.309 159.915 399.698 157.184L416.85 148.48V147.712C412.242 144.981 408.573 141.312 405.842 136.704C403.282 131.925 402.002 126.549 402.002 120.576C402.002 113.408 404.05 106.325 408.146 99.328C412.413 92.16 418.13 86.1866 425.298 81.408C432.637 76.6293 440.999 74.24 450.386 74.24C454.994 74.24 459.773 75.0933 464.722 76.8H503.378V88.064H480.594L479.57 88.832C483.154 93.6106 484.946 99.9253 484.946 107.776C484.946 112.555 483.837 117.589 481.618 122.88C479.399 128 476.157 132.864 471.89 137.472C467.623 142.08 462.503 145.835 456.53 148.736C450.727 151.467 444.157 152.832 436.818 152.832ZM441.426 142.848C446.205 142.848 450.386 141.056 453.97 137.472C457.725 133.888 460.626 129.536 462.674 124.416C464.893 119.125 466.002 113.92 466.002 108.8C466.002 101.461 464.21 95.5733 460.626 91.136C457.042 86.528 452.349 84.224 446.546 84.224C441.426 84.224 436.903 85.9306 432.978 89.344C429.223 92.5866 426.322 96.768 424.274 101.888C422.226 107.008 421.202 112.299 421.202 117.76C421.202 125.269 422.994 131.328 426.578 135.936C430.333 140.544 435.282 142.848 441.426 142.848ZM400.21 224.512C400.21 230.827 402.855 235.861 408.146 239.616C413.607 243.541 420.861 245.504 429.906 245.504C441.682 245.504 450.386 242.859 456.018 237.568C461.65 232.277 464.466 225.963 464.466 218.624C464.466 213.845 463.015 210.005 460.114 207.104C457.383 204.373 453.714 202.24 449.106 200.704C444.498 199.168 439.463 197.888 434.002 196.864C428.711 196.011 423.506 194.987 418.386 193.792C410.535 199.253 405.501 204.459 403.282 209.408C401.234 214.528 400.21 219.563 400.21 224.512Z" fill="#F4F6F7"/>
<path d="M523.956 192H504.5L534.964 18.432L514.996 9.47197V7.93597L556.98 0.255981H557.748L540.084 101.12H540.596C546.569 94.464 551.775 89.1733 556.212 85.248C560.82 81.3226 565.257 78.5066 569.524 76.8C573.961 75.0933 578.911 74.24 584.372 74.24C592.735 74.24 599.135 77.6533 603.572 84.48C608.18 91.3066 609.46 100.523 607.412 112.128L598.452 161.536C597.599 166.656 597.428 170.325 597.94 172.544C598.452 174.763 599.903 175.872 602.292 175.872C605.193 175.872 608.351 174.336 611.764 171.264C615.177 168.021 618.42 163.157 621.492 156.672L624.82 158.208C619.871 171.008 614.495 180.309 608.692 186.112C603.06 191.744 597.257 194.56 591.284 194.56C585.311 194.56 581.215 192.256 578.996 187.648C576.777 183.04 576.351 176.896 577.716 169.216L587.7 112.896C588.553 106.923 587.785 101.632 585.396 97.024C583.177 92.2453 578.313 89.856 570.804 89.856C567.049 89.856 563.209 91.136 559.284 93.696C555.359 96.0853 551.519 99.072 547.764 102.656C544.009 106.069 540.767 109.312 538.036 112.384L523.956 192Z" fill="#F4F6F7"/>
<path d="M660.046 194.56C654.414 194.56 650.147 192.768 647.246 189.184C644.345 185.6 642.894 180.565 642.894 174.08C642.894 172.715 642.979 171.179 643.15 169.472C643.321 167.765 643.577 166.059 643.918 164.352L657.486 88.064H638.542V86.528L660.302 76.8L682.318 48.64H683.854L678.99 76.8H710.99V88.064H676.942L665.422 153.088C665.081 155.307 664.825 157.355 664.654 159.232C664.483 160.939 664.398 162.475 664.398 163.84C664.398 167.936 665.081 170.837 666.446 172.544C667.811 174.251 669.603 175.104 671.822 175.104C675.747 175.104 679.929 172.885 684.366 168.448C688.974 164.011 693.155 157.611 696.91 149.248L700.238 150.784C694.606 166.997 688.291 178.347 681.294 184.832C674.467 191.317 667.385 194.56 660.046 194.56Z" fill="#F4F6F7"/>
<path d="M741.058 192L742.082 187.904L767.938 177.664L793.282 35.84H753.602L730.306 74.752H726.21L735.17 23.04H877.25L868.034 74.752H863.938L854.21 35.84H815.298L789.954 177.664L812.482 187.904L811.714 192H741.058Z" fill="#F4F6F7"/>
<path d="M892.6 194.56C877.752 194.56 866.744 189.952 859.576 180.736C852.579 171.52 849.08 159.573 849.08 144.896C849.08 136.875 850.531 128.768 853.432 120.576C856.333 112.213 860.515 104.533 865.976 97.536C871.437 90.5386 877.923 84.9066 885.432 80.64C892.941 76.3733 901.219 74.24 910.264 74.24C925.112 74.24 936.035 78.848 943.032 88.064C950.2 97.28 953.784 109.227 953.784 123.904C953.784 131.584 952.333 139.605 949.432 147.968C946.701 156.16 942.605 163.84 937.144 171.008C931.853 178.005 925.453 183.723 917.944 188.16C910.435 192.427 901.987 194.56 892.6 194.56ZM895.416 184.832C902.755 184.832 909.155 182.016 914.616 176.384C920.077 170.581 924.259 162.987 927.16 153.6C930.061 144.043 931.512 133.632 931.512 122.368C931.512 109.739 929.805 100.181 926.392 93.696C923.149 87.04 917.005 83.712 907.96 83.712C900.792 83.712 894.392 86.3573 888.76 91.648C883.299 96.768 879.032 103.936 875.96 113.152C872.888 122.368 871.352 133.205 871.352 145.664C871.352 158.293 873.059 168.021 876.472 174.848C879.885 181.504 886.2 184.832 895.416 184.832Z" fill="#F4F6F7"/>
<path d="M997.054 194.56C990.739 194.56 985.534 192.085 981.438 187.136C977.513 182.187 975.55 175.445 975.55 166.912C975.55 165.205 975.635 163.499 975.806 161.792C976.147 160.085 976.403 158.379 976.574 156.672L988.094 92.416L968.126 83.456V81.92L1009.09 74.24H1010.11L996.798 152.576C996.115 156.843 995.774 159.915 995.774 161.792C995.774 166.571 996.883 170.667 999.102 174.08C1001.49 177.323 1005.33 178.944 1010.62 178.944C1014.21 178.944 1017.79 177.664 1021.37 175.104C1025.13 172.544 1028.71 169.472 1032.13 165.888C1035.54 162.304 1038.61 158.976 1041.34 155.904L1052.35 92.416L1034.69 83.456V81.92L1073.6 74.24H1074.62L1059.26 161.536C1058.41 166.656 1058.24 170.325 1058.75 172.544C1059.43 174.763 1061.05 175.872 1063.61 175.872C1066.52 175.872 1069.67 174.336 1073.09 171.264C1076.5 168.021 1079.74 163.157 1082.81 156.672L1086.14 158.208C1081.19 171.008 1075.82 180.309 1070.01 186.112C1064.38 191.744 1058.58 194.56 1052.61 194.56C1046.63 194.56 1042.54 192.256 1040.32 187.648C1038.27 183.04 1037.84 176.896 1039.04 169.216L1039.29 167.68H1038.53C1032.72 174.165 1027.69 179.371 1023.42 183.296C1019.16 187.221 1014.97 190.123 1010.88 192C1006.95 193.707 1002.34 194.56 997.054 194.56Z" fill="#F4F6F7"/>
<path d="M1135.67 194.56C1123.38 194.56 1113.99 190.891 1107.51 183.552C1101.02 176.043 1097.78 165.205 1097.78 151.04C1097.78 142.165 1099.49 133.291 1102.9 124.416C1106.48 115.371 1111.26 107.093 1117.24 99.584C1123.38 91.904 1130.21 85.76 1137.72 81.152C1145.4 76.544 1153.25 74.24 1161.27 74.24C1167.58 74.24 1172.7 75.4346 1176.63 77.824C1180.55 80.0426 1183.71 83.0293 1186.1 86.784C1187.12 88.32 1187.81 89.6 1188.15 90.624C1188.49 91.648 1188.66 92.7573 1188.66 93.952C1188.66 95.1466 1188.32 96.3413 1187.64 97.536C1187.12 98.7306 1186.19 99.7546 1184.82 100.608L1177.4 104.96H1175.6L1170.48 97.536C1167.75 93.44 1164.94 90.4533 1162.04 88.576C1159.31 86.528 1155.29 85.504 1150 85.504C1144.37 85.504 1139 88.2346 1133.88 93.696C1128.93 99.1573 1124.83 106.155 1121.59 114.688C1118.52 123.051 1116.98 131.84 1116.98 141.056C1116.98 153.173 1119.03 162.475 1123.12 168.96C1127.39 175.445 1134.22 178.688 1143.6 178.688C1146.51 178.688 1149.75 178.176 1153.33 177.152C1156.92 175.957 1160.84 173.653 1165.11 170.24C1169.37 166.656 1174.07 161.28 1179.19 154.112H1179.7L1182.26 156.16C1174.92 169.131 1167.5 178.773 1159.99 185.088C1152.48 191.403 1144.37 194.56 1135.67 194.56Z" fill="#F4F6F7"/>
<path d="M1216.25 192H1196.79L1227.25 18.432L1207.29 9.47197V7.93597L1249.27 0.255981H1250.04L1232.37 101.12H1232.89C1238.86 94.464 1244.06 89.1733 1248.5 85.248C1253.11 81.3226 1257.55 78.5066 1261.81 76.8C1266.25 75.0933 1271.2 74.24 1276.66 74.24C1285.02 74.24 1291.42 77.6533 1295.86 84.48C1300.47 91.3066 1301.75 100.523 1299.7 112.128L1290.74 161.536C1289.89 166.656 1289.72 170.325 1290.23 172.544C1290.74 174.763 1292.19 175.872 1294.58 175.872C1297.48 175.872 1300.64 174.336 1304.05 171.264C1307.47 168.021 1310.71 163.157 1313.78 156.672L1317.11 158.208C1312.16 171.008 1306.78 180.309 1300.98 186.112C1295.35 191.744 1289.55 194.56 1283.57 194.56C1277.6 194.56 1273.5 192.256 1271.29 187.648C1269.07 183.04 1268.64 176.896 1270.01 169.216L1279.99 112.896C1280.84 106.923 1280.08 101.632 1277.69 97.024C1275.47 92.2453 1270.6 89.856 1263.09 89.856C1259.34 89.856 1255.5 91.136 1251.57 93.696C1247.65 96.0853 1243.81 99.072 1240.05 102.656C1236.3 106.069 1233.06 109.312 1230.33 112.384L1216.25 192Z" fill="#F4F6F7"/>
</svg>
