<svg width="1318" height="260" viewBox="0 0 1318 260" fill="none" xmlns="http://www.w3.org/2000/svg">
<path d="M0.559998 192L1.328 187.904L20.784 177.664L45.616 37.376L27.184 27.136L27.952 23.04H88.88L88.112 27.136L67.376 37.376L42.544 177.664L62.256 187.904L61.488 192H0.559998Z" fill="#F4F6F7"/>
<path d="M97.388 192L115.052 92.416L95.084 83.456V81.92L131.436 74.24H132.204V101.12H133.228C139.201 94.464 144.492 89.1733 149.1 85.248C153.708 81.3226 158.145 78.5066 162.412 76.8C166.679 75.0933 171.628 74.24 177.26 74.24C185.623 74.24 192.023 77.6533 196.46 84.48C201.068 91.3066 202.348 100.523 200.3 112.128L191.34 161.536C190.487 166.656 190.316 170.325 190.828 172.544C191.511 174.763 192.961 175.872 195.18 175.872C198.081 175.872 201.239 174.336 204.652 171.264C208.065 168.021 211.308 163.157 214.38 156.672L217.708 158.208C212.759 171.008 207.383 180.309 201.58 186.112C195.948 191.744 190.145 194.56 184.172 194.56C178.199 194.56 174.103 192.256 171.884 187.648C169.665 183.04 169.239 176.896 170.604 169.216L180.588 112.896C181.441 106.923 180.673 101.632 178.284 97.024C176.065 92.2453 171.201 89.856 163.692 89.856C159.937 89.856 156.012 91.136 151.916 93.696C147.991 96.256 144.151 99.328 140.396 102.912C136.641 106.325 133.313 109.653 130.412 112.896L116.844 192H97.388Z" fill="#F4F6F7"/>
<path d="M258.226 194.56C249.522 194.56 242.439 193.365 236.978 190.976C231.517 188.416 227.591 185.259 225.202 181.504C224.178 179.968 223.495 178.688 223.154 177.664C222.813 176.64 222.642 175.531 222.642 174.336C222.642 173.312 222.813 172.288 223.154 171.264C223.495 170.069 224.349 169.131 225.714 168.448L231.346 165.376H233.138L237.49 172.8C240.05 177.067 243.463 180.309 247.73 182.528C251.997 184.576 256.263 185.6 260.53 185.6C267.015 185.6 272.306 183.893 276.402 180.48C280.669 177.067 282.802 172.117 282.802 165.632C282.802 158.976 280.583 153.856 276.146 150.272C271.879 146.688 267.015 143.275 261.554 140.032C255.069 136.107 250.205 132.523 246.962 129.28C243.719 126.037 241.501 122.709 240.306 119.296C239.111 115.883 238.514 111.787 238.514 107.008C238.514 102.059 240.391 97.1093 244.146 92.16C247.901 87.04 252.85 82.7733 258.994 79.36C265.138 75.9466 271.623 74.24 278.45 74.24C285.959 74.24 291.847 75.4346 296.114 77.824C300.381 80.0426 303.709 82.944 306.098 86.528C307.634 88.9173 308.402 91.136 308.402 93.184C308.402 94.3786 308.061 95.5733 307.378 96.768C306.866 97.9626 306.013 98.9013 304.818 99.584L299.954 102.144H298.162L292.53 94.208C290.141 90.7946 287.41 88.2346 284.338 86.528C281.437 84.6506 277.767 83.712 273.33 83.712C268.381 83.712 264.114 85.248 260.53 88.32C257.117 91.2213 255.41 95.0613 255.41 99.84C255.41 105.301 257.031 109.824 260.274 113.408C263.687 116.992 267.613 120.064 272.05 122.624C278.194 126.208 283.229 129.621 287.154 132.864C291.25 136.107 294.322 139.776 296.37 143.872C298.418 147.968 299.442 153.173 299.442 159.488C299.442 165.461 297.65 171.179 294.066 176.64C290.482 181.931 285.533 186.283 279.218 189.696C273.074 192.939 266.077 194.56 258.226 194.56Z" fill="#F4F6F7"/>
<path d="M365.116 42.24C361.191 42.24 357.777 40.7893 354.876 37.888C351.975 34.9866 350.524 31.5733 350.524 27.648C350.524 23.7226 351.975 20.3093 354.876 17.408C357.777 14.5066 361.191 13.056 365.116 13.056C369.041 13.056 372.455 14.5066 375.356 17.408C378.257 20.3093 379.708 23.7226 379.708 27.648C379.708 31.5733 378.257 34.9866 375.356 37.888C372.455 40.7893 369.041 42.24 365.116 42.24ZM346.94 194.56C340.967 194.56 336.871 192.256 334.652 187.648C332.433 183.04 332.007 176.896 333.372 169.216L346.94 92.16L324.668 83.456V81.92L368.956 74.24H369.724L354.108 161.536C353.255 166.656 353.084 170.325 353.596 172.544C354.108 174.763 355.559 175.872 357.948 175.872C360.849 175.872 364.007 174.336 367.42 171.264C370.833 168.021 374.076 163.157 377.148 156.672L380.476 158.208C375.527 171.008 370.151 180.309 364.348 186.112C358.716 191.744 352.913 194.56 346.94 194.56Z" fill="#F4F6F7"/>
<path d="M436.818 152.832C431.698 152.832 427.005 152.064 422.738 150.528C418.813 152.405 415.997 154.795 414.29 157.696C412.754 160.427 411.986 163.328 411.986 166.4C411.986 169.813 413.693 172.459 417.106 174.336C420.519 176.213 424.871 177.749 430.162 178.944C435.623 180.139 441.426 181.419 447.57 182.784C453.714 183.979 459.431 185.685 464.722 187.904C470.183 189.952 474.621 192.768 478.034 196.352C481.447 200.107 483.154 205.056 483.154 211.2C483.154 218.027 481.021 224.683 476.754 231.168C472.487 237.653 466.087 242.944 457.554 247.04C449.191 251.307 438.525 253.44 425.554 253.44C410.365 253.44 399.101 250.965 391.762 246.016C384.594 241.067 381.01 234.837 381.01 227.328C381.01 221.867 381.863 217.6 383.57 214.528C385.106 211.456 387.751 208.043 391.506 204.288L411.986 192.768V192.256C406.695 190.72 402.258 188.587 398.674 185.856C395.261 183.125 393.554 179.115 393.554 173.824C393.554 170.24 393.981 167.253 394.834 164.864C395.687 162.475 397.309 159.915 399.698 157.184L416.85 148.48V147.712C412.242 144.981 408.573 141.312 405.842 136.704C403.282 131.925 402.002 126.549 402.002 120.576C402.002 113.408 404.05 106.325 408.146 99.328C412.413 92.16 418.13 86.1866 425.298 81.408C432.637 76.6293 440.999 74.24 450.386 74.24C454.994 74.24 459.773 75.0933 464.722 76.8H503.378V88.064H480.594L479.57 88.832C483.154 93.6106 484.946 99.9253 484.946 107.776C484.946 112.555 483.837 117.589 481.618 122.88C479.399 128 476.157 132.864 471.89 137.472C467.623 142.08 462.503 145.835 456.53 148.736C450.727 151.467 444.157 152.832 436.818 152.832ZM441.426 142.848C446.205 142.848 450.386 141.056 453.97 137.472C457.725 133.888 460.626 129.536 462.674 124.416C464.893 119.125 466.002 113.92 466.002 108.8C466.002 101.461 464.21 95.5733 460.626 91.136C457.042 86.528 452.349 84.224 446.546 84.224C441.426 84.224 436.903 85.9306 432.978 89.344C429.223 92.5866 426.322 96.768 424.274 101.888C422.226 107.008 421.202 112.299 421.202 117.76C421.202 125.269 422.994 131.328 426.578 135.936C430.333 140.544 435.282 142.848 441.426 142.848ZM400.21 224.512C400.21 230.827 402.855 235.861 408.146 239.616C413.607 243.541 420.861 245.504 429.906 245.504C441.682 245.504 450.386 242.859 456.018 237.568C461.65 232.277 464.466 225.963 464.466 218.624C464.466 213.845 463.015 210.005 460.114 207.104C457.383 204.373 453.714 202.24 449.106 200.704C444.498 199.168 439.463 197.888 434.002 196.864C428.711 196.011 423.506 194.987 418.386 193.792C410.535 199.253 405.501 204.459 403.282 209.408C401.234 214.528 400.21 219.563 400.21 224.512Z" fill="#F4F6F7"/>
<path d="M523.956 192H504.5L534.964 18.432L514.996 9.47197V7.93597L556.98 0.255981H557.748L540.084 101.12H540.596C546.569 94.464 551.775 89.1733 556.212 85.248C560.82 81.3226 565.257 78.5066 569.524 76.8C573.961 75.0933 578.911 74.24 584.372 74.24C592.735 74.24 599.135 77.6533 603.572 84.48C608.18 91.3066 609.46 100.523 607.412 112.128L598.452 161.536C597.599 166.656 597.428 170.325 597.94 172.544C598.452 174.763 599.903 175.872 602.292 175.872C605.193 175.872 608.351 174.336 611.764 171.264C615.177 168.021 618.42 163.157 621.492 156.672L624.82 158.208C619.871 171.008 614.495 180.309 608.692 186.112C603.06 191.744 597.257 194.56 591.284 194.56C585.311 194.56 581.215 192.256 578.996 187.648C576.777 183.04 576.351 176.896 577.716 169.216L587.7 112.896C588.553 106.923 587.785 101.632 585.396 97.024C583.177 92.2453 578.313 89.856 570.804 89.856C567.049 89.856 563.209 91.136 559.284 93.696C555.359 96.0853 551.519 99.072 547.764 102.656C544.009 106.069 540.767 109.312 538.036 112.384L523.956 192Z" fill="#F4F6F7"/>
<path d="M660.046 194.56C654.414 194.56 650.147 192.768 647.246 189.184C644.345 185.6 642.894 180.565 642.894 174.08C642.894 172.715 642.979 171.179 643.15 169.472C643.321 167.765 643.577 166.059 643.918 164.352L657.486 88.064H638.542V86.528L660.302 76.8L682.318 48.64H683.854L678.99 76.8H710.99V88.064H676.942L665.422 153.088C665.081 155.307 664.825 157.355 664.654 159.232C664.483 160.939 664.398 162.475 664.398 163.84C664.398 167.936 665.081 170.837 666.446 172.544C667.811 174.251 669.603 175.104 671.822 175.104C675.747 175.104 679.929 172.885 684.366 168.448C688.974 164.011 693.155 157.611 696.91 149.248L700.238 150.784C694.606 166.997 688.291 178.347 681.294 184.832C674.467 191.317 667.385 194.56 660.046 194.56Z" fill="#F4F6F7"/>
<path d="M741.058 192L742.082 187.904L767.938 177.664L793.282 35.84H753.602L730.306 74.752H726.21L735.17 23.04H877.25L868.034 74.752H863.938L854.21 35.84H815.298L789.954 177.664L812.482 187.904L811.714 192H741.058Z" fill="#F4F6F7"/>
<path d="M892.6 194.56C877.752 194.56 866.744 189.952 859.576 180.736C852.579 171.52 849.08 159.573 849.08 144.896C849.08 136.875 850.531 128.768 853.432 120.576C856.333 112.213 860.515 104.533 865.976 97.536C871.437 90.5386 877.923 84.9066 885.432 80.64C892.941 76.3733 901.219 74.24 910.264 74.24C925.112 74.24 936.035 78.848 943.032 88.064C950.2 97.28 953.784 109.227 953.784 123.904C953.784 131.584 952.333 139.605 949.432 147.968C946.701 156.16 942.605 163.84 937.144 171.008C931.853 178.005 925.453 183.723 917.944 188.16C910.435 192.427 901.987 194.56 892.6 194.56ZM895.416 184.832C902.755 184.832 909.155 182.016 914.616 176.384C920.077 170.581 924.259 162.987 927.16 153.6C930.061 144.043 931.512 133.632 931.512 122.368C931.512 109.739 929.805 100.181 926.392 93.696C923.149 87.04 917.005 83.712 907.96 83.712C900.792 83.712 894.392 86.3573 888.76 91.648C883.299 96.768 879.032 103.936 875.96 113.152C872.888 122.368 871.352 133.205 871.352 145.664C871.352 158.293 873.059 168.021 876.472 174.848C879.885 181.504 886.2 184.832 895.416 184.832Z" fill="#F4F6F7"/>
<path d="M997.054 194.56C990.739 194.56 985.534 192.085 981.438 187.136C977.513 182.187 975.55 175.445 975.55 166.912C975.55 165.205 975.635 163.499 975.806 161.792C976.147 160.085 976.403 158.379 976.574 156.672L988.094 92.416L968.126 83.456V81.92L1009.09 74.24H1010.11L996.798 152.576C996.115 156.843 995.774 159.915 995.774 161.792C995.774 166.571 996.883 170.667 999.102 174.08C1001.49 177.323 1005.33 178.944 1010.62 178.944C1014.21 178.944 1017.79 177.664 1021.37 175.104C1025.13 172.544 1028.71 169.472 1032.13 165.888C1035.54 162.304 1038.61 158.976 1041.34 155.904L1052.35 92.416L1034.69 83.456V81.92L1073.6 74.24H1074.62L1059.26 161.536C1058.41 166.656 1058.24 170.325 1058.75 172.544C1059.43 174.763 1061.05 175.872 1063.61 175.872C1066.52 175.872 1069.67 174.336 1073.09 171.264C1076.5 168.021 1079.74 163.157 1082.81 156.672L1086.14 158.208C1081.19 171.008 1075.82 180.309 1070.01 186.112C1064.38 191.744 1058.58 194.56 1052.61 194.56C1046.63 194.56 1042.54 192.256 1040.32 187.648C1038.27 183.04 1037.84 176.896 1039.04 169.216L1039.29 167.68H1038.53C1032.72 174.165 1027.69 179.371 1023.42 183.296C1019.16 187.221 1014.97 190.123 1010.88 192C1006.95 193.707 1002.34 194.56 997.054 194.56Z" fill="#F4F6F7"/>
<path d="M1135.67 194.56C1123.38 194.56 1113.99 190.891 1107.51 183.552C1101.02 176.043 1097.78 165.205 1097.78 151.04C1097.78 142.165 1099.49 133.291 1102.9 124.416C1106.48 115.371 1111.26 107.093 1117.24 99.584C1123.38 91.904 1130.21 85.76 1137.72 81.152C1145.4 76.544 1153.25 74.24 1161.27 74.24C1167.58 74.24 1172.7 75.4346 1176.63 77.824C1180.55 80.0426 1183.71 83.0293 1186.1 86.784C1187.12 88.32 1187.81 89.6 1188.15 90.624C1188.49 91.648 1188.66 92.7573 1188.66 93.952C1188.66 95.1466 1188.32 96.3413 1187.64 97.536C1187.12 98.7306 1186.19 99.7546 1184.82 100.608L1177.4 104.96H1175.6L1170.48 97.536C1167.75 93.44 1164.94 90.4533 1162.04 88.576C1159.31 86.528 1155.29 85.504 1150 85.504C1144.37 85.504 1139 88.2346 1133.88 93.696C1128.93 99.1573 1124.83 106.155 1121.59 114.688C1118.52 123.051 1116.98 131.84 1116.98 141.056C1116.98 153.173 1119.03 162.475 1123.12 168.96C1127.39 175.445 1134.22 178.688 1143.6 178.688C1146.51 178.688 1149.75 178.176 1153.33 177.152C1156.92 175.957 1160.84 173.653 1165.11 170.24C1169.37 166.656 1174.07 161.28 1179.19 154.112H1179.7L1182.26 156.16C1174.92 169.131 1167.5 178.773 1159.99 185.088C1152.48 191.403 1144.37 194.56 1135.67 194.56Z" fill="#F4F6F7"/>
<path d="M1216.25 192H1196.79L1227.25 18.432L1207.29 9.47197V7.93597L1249.27 0.255981H1250.04L1232.37 101.12H1232.89C1238.86 94.464 1244.06 89.1733 1248.5 85.248C1253.11 81.3226 1257.55 78.5066 1261.81 76.8C1266.25 75.0933 1271.2 74.24 1276.66 74.24C1285.02 74.24 1291.42 77.6533 1295.86 84.48C1300.47 91.3066 1301.75 100.523 1299.7 112.128L1290.74 161.536C1289.89 166.656 1289.72 170.325 1290.23 172.544C1290.74 174.763 1292.19 175.872 1294.58 175.872C1297.48 175.872 1300.64 174.336 1304.05 171.264C1307.47 168.021 1310.71 163.157 1313.78 156.672L1317.11 158.208C1312.16 171.008 1306.78 180.309 1300.98 186.112C1295.35 191.744 1289.55 194.56 1283.57 194.56C1277.6 194.56 1273.5 192.256 1271.29 187.648C1269.07 183.04 1268.64 176.896 1270.01 169.216L1279.99 112.896C1280.84 106.923 1280.08 101.632 1277.69 97.024C1275.47 92.2453 1270.6 89.856 1263.09 89.856C1259.34 89.856 1255.5 91.136 1251.57 93.696C1247.65 96.0853 1243.81 99.072 1240.05 102.656C1236.3 106.069 1233.06 109.312 1230.33 112.384L1216.25 192Z" fill="#F4F6F7"/>
<path d="M724.848 231.752H716.976L717.264 230.28H734.672L734.352 231.752H726.48L721.936 253H720.336L724.848 231.752Z" fill="white"/>
<path d="M736.932 253.32C735.524 253.32 734.351 253.011 733.412 252.392C732.495 251.752 731.802 250.909 731.332 249.864C730.863 248.797 730.628 247.635 730.628 246.376C730.628 244.947 730.884 243.613 731.396 242.376C731.93 241.117 732.644 240.019 733.54 239.08C734.436 238.141 735.46 237.405 736.612 236.872C737.786 236.339 739.002 236.072 740.26 236.072C741.668 236.072 742.842 236.392 743.78 237.032C744.719 237.672 745.412 238.525 745.86 239.592C746.33 240.637 746.564 241.8 746.564 243.08C746.564 244.488 746.308 245.811 745.796 247.048C745.284 248.285 744.58 249.384 743.684 250.344C742.788 251.283 741.764 252.019 740.612 252.552C739.46 253.064 738.234 253.32 736.932 253.32ZM737.22 251.88C738.202 251.88 739.151 251.667 740.068 251.24C740.986 250.813 741.807 250.216 742.532 249.448C743.279 248.659 743.866 247.752 744.292 246.728C744.719 245.683 744.932 244.552 744.932 243.336C744.932 242.248 744.74 241.267 744.356 240.392C743.994 239.517 743.45 238.824 742.724 238.312C741.999 237.779 741.092 237.512 740.004 237.512C739.023 237.512 738.074 237.736 737.156 238.184C736.239 238.611 735.407 239.219 734.66 240.008C733.935 240.797 733.359 241.715 732.932 242.76C732.506 243.805 732.292 244.936 732.292 246.152C732.292 247.219 732.474 248.189 732.836 249.064C733.199 249.939 733.743 250.632 734.468 251.144C735.215 251.635 736.132 251.88 737.22 251.88Z" fill="white"/>
<path d="M753.839 253.32C751.258 253.32 749.967 251.869 749.967 248.968C749.967 248.52 749.999 248.051 750.063 247.56C750.127 247.069 750.212 246.536 750.319 245.96L752.399 236.36H753.967L751.983 245.736C751.748 246.76 751.631 247.667 751.631 248.456C751.631 250.739 752.623 251.88 754.607 251.88C755.503 251.88 756.399 251.677 757.295 251.272C758.191 250.845 759.034 250.259 759.823 249.512C760.612 248.744 761.263 247.859 761.775 246.856L763.983 236.36H765.583L762.639 250.28C762.596 250.451 762.554 250.611 762.511 250.76C762.49 250.909 762.479 251.005 762.479 251.048C762.479 251.389 762.66 251.56 763.023 251.56L762.703 253C762.554 253 762.415 253 762.287 253C762.18 253.021 762.084 253.032 761.999 253.032C761.658 252.989 761.391 252.872 761.199 252.68C761.028 252.488 760.943 252.232 760.943 251.912C760.943 251.827 760.954 251.72 760.975 251.592C760.996 251.443 761.039 251.176 761.103 250.792C761.188 250.408 761.316 249.832 761.487 249.064C760.506 250.387 759.332 251.432 757.967 252.2C756.602 252.947 755.226 253.32 753.839 253.32Z" fill="white"/>
<path d="M774.4 253.32C773.098 253.32 771.978 253.011 771.04 252.392C770.101 251.752 769.376 250.899 768.864 249.832C768.373 248.765 768.128 247.581 768.128 246.28C768.128 244.893 768.384 243.592 768.896 242.376C769.429 241.16 770.144 240.083 771.04 239.144C771.957 238.184 773.002 237.437 774.176 236.904C775.37 236.349 776.629 236.072 777.952 236.072C779.424 236.072 780.629 236.424 781.568 237.128C782.528 237.811 783.157 238.749 783.456 239.944L781.76 240.456C781.504 239.517 781.024 238.792 780.32 238.28C779.616 237.768 778.773 237.512 777.792 237.512C776.768 237.512 775.776 237.736 774.816 238.184C773.856 238.632 773.002 239.251 772.256 240.04C771.509 240.829 770.901 241.736 770.432 242.76C769.984 243.784 769.76 244.872 769.76 246.024C769.76 247.133 769.962 248.125 770.368 249C770.794 249.875 771.36 250.579 772.064 251.112C772.789 251.624 773.621 251.88 774.56 251.88C775.306 251.88 776.053 251.741 776.8 251.464C777.546 251.165 778.218 250.781 778.816 250.312C779.434 249.843 779.882 249.341 780.16 248.808L781.632 249.256C781.205 250.045 780.608 250.749 779.84 251.368C779.072 251.965 778.208 252.445 777.248 252.808C776.309 253.149 775.36 253.32 774.4 253.32Z" fill="white"/>
<path d="M789.967 229.64H791.567L789.295 240.328C790.212 239.027 791.321 237.992 792.623 237.224C793.924 236.456 795.236 236.072 796.559 236.072C797.433 236.072 798.148 236.243 798.703 236.584C799.279 236.925 799.695 237.416 799.951 238.056C800.228 238.696 800.367 239.475 800.367 240.392C800.367 240.84 800.335 241.32 800.271 241.832C800.228 242.344 800.143 242.877 800.015 243.432L797.999 253H796.399L798.351 243.72C798.457 243.208 798.532 242.728 798.575 242.28C798.639 241.832 798.671 241.427 798.671 241.064C798.671 239.891 798.425 239.016 797.935 238.44C797.444 237.843 796.719 237.544 795.759 237.544C794.927 237.544 794.063 237.768 793.167 238.216C792.271 238.664 791.428 239.283 790.639 240.072C789.871 240.84 789.252 241.715 788.783 242.696L786.607 253H785.007L789.967 229.64Z" fill="white"/>
<path d="M810.247 253.32C808.924 253.32 807.783 253 806.823 252.36C805.884 251.72 805.159 250.867 804.647 249.8C804.135 248.733 803.868 247.56 803.847 246.28C803.825 244.979 804.039 243.72 804.487 242.504C804.956 241.288 805.617 240.2 806.471 239.24C807.345 238.259 808.359 237.491 809.511 236.936C810.684 236.36 811.964 236.072 813.351 236.072C814.353 236.072 815.26 236.243 816.071 236.584C816.903 236.925 817.553 237.427 818.023 238.088C818.513 238.749 818.769 239.592 818.791 240.616C818.812 242.301 818.108 243.507 816.679 244.232C815.271 244.957 813.095 245.32 810.151 245.32C809.425 245.32 808.636 245.309 807.783 245.288C806.929 245.245 805.969 245.181 804.903 245.096L805.191 243.912C806.279 243.976 807.217 244.029 808.007 244.072C808.796 244.093 809.543 244.104 810.247 244.104C812.039 244.104 813.447 243.976 814.471 243.72C815.495 243.443 816.22 243.048 816.647 242.536C817.095 242.003 817.308 241.363 817.287 240.616C817.287 239.848 817.084 239.229 816.679 238.76C816.295 238.291 815.793 237.949 815.175 237.736C814.556 237.501 813.895 237.384 813.191 237.384C812.06 237.384 811.015 237.64 810.055 238.152C809.116 238.643 808.295 239.315 807.591 240.168C806.908 241 806.385 241.928 806.023 242.952C805.66 243.976 805.479 245.011 805.479 246.056C805.5 247.165 805.703 248.179 806.087 249.096C806.492 249.992 807.068 250.707 807.815 251.24C808.561 251.773 809.479 252.04 810.567 252.04C811.804 252.04 812.924 251.741 813.927 251.144C814.929 250.525 815.708 249.704 816.263 248.68L817.639 249.096C817.169 249.928 816.561 250.664 815.815 251.304C815.068 251.944 814.225 252.445 813.287 252.808C812.348 253.149 811.335 253.32 810.247 253.32Z" fill="white"/>
<path d="M819.694 251.848L833.774 237.608H822.926L823.214 236.36H835.886L835.63 237.512L821.614 251.752H832.59L832.302 253H819.438L819.694 251.848Z" fill="white"/>
<path d="M848.01 253.192C847.284 253.192 846.719 253 846.314 252.616C845.908 252.211 845.706 251.667 845.706 250.984C845.706 250.856 845.716 250.728 845.738 250.6C845.759 250.451 845.78 250.312 845.802 250.184L850.154 229.64H851.754L847.498 249.704C847.476 249.811 847.455 249.907 847.434 249.992C847.434 250.077 847.434 250.173 847.434 250.28C847.434 251.24 847.956 251.72 849.002 251.72C849.236 251.72 849.514 251.688 849.834 251.624C850.154 251.56 850.452 251.485 850.73 251.4V252.68C850.367 252.808 849.919 252.925 849.386 253.032C848.852 253.139 848.394 253.192 848.01 253.192Z" fill="white"/>
<path d="M855.692 235.72L856.812 232.584H856.236L856.844 229.64H858.508L857.868 232.584L856.556 235.72H855.692Z" fill="white"/>
<path d="M861.179 236.36H862.779L859.259 253H857.659L861.179 236.36ZM862.619 229.64H864.219L863.611 232.584H862.011L862.619 229.64Z" fill="white"/>
<path d="M868.257 236.36H869.761L868.897 240.328C869.515 239.475 870.241 238.739 871.073 238.12C871.905 237.48 872.801 236.979 873.761 236.616C874.721 236.253 875.659 236.072 876.577 236.072C877.43 236.072 878.113 236.232 878.625 236.552C879.158 236.851 879.542 237.299 879.777 237.896C880.033 238.493 880.161 239.219 880.161 240.072C880.161 240.563 880.118 241.085 880.033 241.64C879.969 242.195 879.873 242.792 879.745 243.432L877.729 253H876.129L878.081 243.72C878.209 243.123 878.294 242.579 878.337 242.088C878.401 241.597 878.433 241.149 878.433 240.744C878.433 239.656 878.209 238.856 877.761 238.344C877.334 237.811 876.673 237.544 875.777 237.544C874.902 237.544 873.995 237.768 873.057 238.216C872.118 238.664 871.243 239.283 870.433 240.072C869.643 240.84 869.003 241.715 868.513 242.696L866.337 253H864.737L868.257 236.36Z" fill="white"/>
<path d="M884.225 236.36H885.889L888.129 251.4C889.11 250.205 890.006 248.979 890.817 247.72C891.628 246.461 892.364 245.181 893.025 243.88C893.708 242.579 894.305 241.299 894.817 240.04C895.35 238.76 895.788 237.533 896.129 236.36H897.665C896.854 239.133 895.692 241.928 894.177 244.744C892.684 247.539 890.806 250.291 888.545 253H886.881L884.225 236.36Z" fill="white"/>
<path d="M902.068 236.36H903.668L900.148 253H898.548L902.068 236.36ZM903.508 229.64H905.108L904.5 232.584H902.9L903.508 229.64Z" fill="white"/>
<path d="M910.649 253.32C909.391 253.32 908.239 253.107 907.193 252.68C906.169 252.253 905.337 251.613 904.697 250.76L905.689 249.672C906.393 250.461 907.161 251.048 907.993 251.432C908.825 251.816 909.764 252.008 910.809 252.008C911.855 252.008 912.772 251.848 913.561 251.528C914.372 251.208 915.012 250.749 915.481 250.152C915.951 249.555 916.185 248.861 916.185 248.072C916.185 247.219 915.812 246.611 915.065 246.248C914.319 245.885 913.252 245.512 911.865 245.128C910.884 244.851 910.052 244.595 909.369 244.36C908.708 244.104 908.207 243.773 907.865 243.368C907.545 242.963 907.385 242.408 907.385 241.704C907.385 240.488 907.695 239.464 908.313 238.632C908.953 237.8 909.796 237.171 910.841 236.744C911.887 236.296 913.039 236.072 914.297 236.072C915.577 236.072 916.644 236.296 917.497 236.744C918.372 237.171 918.991 237.725 919.353 238.408L918.297 239.272C917.935 238.632 917.38 238.163 916.633 237.864C915.887 237.544 915.044 237.384 914.105 237.384C913.252 237.384 912.431 237.523 911.641 237.8C910.852 238.077 910.212 238.504 909.721 239.08C909.231 239.656 908.985 240.392 908.985 241.288C908.985 242.035 909.263 242.568 909.817 242.888C910.393 243.187 911.3 243.496 912.537 243.816C913.625 244.115 914.564 244.424 915.353 244.744C916.143 245.043 916.751 245.427 917.177 245.896C917.604 246.365 917.817 247.005 917.817 247.816C917.817 248.925 917.508 249.896 916.889 250.728C916.292 251.56 915.449 252.2 914.361 252.648C913.295 253.096 912.057 253.32 910.649 253.32Z" fill="white"/>
<path d="M924.535 236.36H926.135L922.615 253H921.015L924.535 236.36ZM925.975 229.64H927.575L926.967 232.584H925.367L925.975 229.64Z" fill="white"/>
<path d="M935.549 253.32C934.183 253.32 933.053 252.968 932.157 252.264C931.261 251.539 930.621 250.675 930.237 249.672L929.533 253H928.093L933.053 229.64H934.653L932.445 239.976C933.447 238.824 934.525 237.885 935.677 237.16C936.85 236.435 938.087 236.072 939.389 236.072C940.669 236.072 941.725 236.403 942.557 237.064C943.41 237.725 944.039 238.579 944.445 239.624C944.871 240.669 945.085 241.768 945.085 242.92C945.085 244.285 944.807 245.587 944.253 246.824C943.719 248.061 942.994 249.171 942.077 250.152C941.181 251.133 940.168 251.912 939.037 252.488C937.906 253.043 936.743 253.32 935.549 253.32ZM935.549 251.88C936.551 251.88 937.522 251.645 938.461 251.176C939.399 250.685 940.231 250.024 940.957 249.192C941.703 248.339 942.29 247.4 942.717 246.376C943.165 245.331 943.389 244.253 943.389 243.144C943.389 242.163 943.207 241.245 942.845 240.392C942.482 239.539 941.949 238.845 941.245 238.312C940.562 237.779 939.709 237.512 938.685 237.512C937.831 237.512 936.999 237.715 936.189 238.12C935.399 238.504 934.664 239.016 933.981 239.656C933.298 240.296 932.658 241 932.061 241.768L930.781 247.912C930.866 248.68 931.133 249.373 931.581 249.992C932.029 250.589 932.594 251.059 933.277 251.4C933.981 251.72 934.738 251.88 935.549 251.88Z" fill="white"/>
<path d="M950.395 253.192C949.67 253.192 949.104 253 948.699 252.616C948.293 252.211 948.091 251.667 948.091 250.984C948.091 250.856 948.101 250.728 948.123 250.6C948.144 250.451 948.165 250.312 948.187 250.184L952.539 229.64H954.139L949.883 249.704C949.861 249.811 949.84 249.907 949.819 249.992C949.819 250.077 949.819 250.173 949.819 250.28C949.819 251.24 950.341 251.72 951.387 251.72C951.621 251.72 951.899 251.688 952.219 251.624C952.539 251.56 952.837 251.485 953.115 251.4V252.68C952.752 252.808 952.304 252.925 951.771 253.032C951.237 253.139 950.779 253.192 950.395 253.192Z" fill="white"/>
<path d="M962.879 253.32C961.557 253.32 960.415 253 959.455 252.36C958.517 251.72 957.791 250.867 957.279 249.8C956.767 248.733 956.501 247.56 956.479 246.28C956.458 244.979 956.671 243.72 957.119 242.504C957.589 241.288 958.25 240.2 959.103 239.24C959.978 238.259 960.991 237.491 962.143 236.936C963.317 236.36 964.597 236.072 965.983 236.072C966.986 236.072 967.893 236.243 968.703 236.584C969.535 236.925 970.186 237.427 970.655 238.088C971.146 238.749 971.402 239.592 971.423 240.616C971.445 242.301 970.741 243.507 969.311 244.232C967.903 244.957 965.727 245.32 962.783 245.32C962.058 245.32 961.269 245.309 960.415 245.288C959.562 245.245 958.602 245.181 957.535 245.096L957.823 243.912C958.911 243.976 959.85 244.029 960.639 244.072C961.429 244.093 962.175 244.104 962.879 244.104C964.671 244.104 966.079 243.976 967.103 243.72C968.127 243.443 968.853 243.048 969.279 242.536C969.727 242.003 969.941 241.363 969.919 240.616C969.919 239.848 969.717 239.229 969.311 238.76C968.927 238.291 968.426 237.949 967.807 237.736C967.189 237.501 966.527 237.384 965.823 237.384C964.693 237.384 963.647 237.64 962.687 238.152C961.749 238.643 960.927 239.315 960.223 240.168C959.541 241 959.018 241.928 958.655 242.952C958.293 243.976 958.111 245.011 958.111 246.056C958.133 247.165 958.335 248.179 958.719 249.096C959.125 249.992 959.701 250.707 960.447 251.24C961.194 251.773 962.111 252.04 963.199 252.04C964.437 252.04 965.557 251.741 966.559 251.144C967.562 250.525 968.341 249.704 968.895 248.68L970.271 249.096C969.802 249.928 969.194 250.664 968.447 251.304C967.701 251.944 966.858 252.445 965.919 252.808C964.981 253.149 963.967 253.32 962.879 253.32Z" fill="white"/>
<path d="M973.703 255.592L974.695 253.064H974.119L974.695 250.28H976.327L975.719 253.064L974.567 255.592H973.703Z" fill="white"/>
<path d="M993.063 236.36H994.599L993.703 240.456C994.556 239.219 995.527 238.248 996.615 237.544C997.703 236.819 998.791 236.424 999.879 236.36C1000.03 236.339 1000.17 236.339 1000.29 236.36C1000.42 236.36 1000.53 236.36 1000.61 236.36L1000.29 237.8C998.887 237.843 997.553 238.291 996.295 239.144C995.057 239.976 994.076 241.128 993.351 242.6L991.143 253H989.543L993.063 236.36Z" fill="white"/>
<path d="M1007.16 253.32C1005.84 253.32 1004.69 253 1003.73 252.36C1002.8 251.72 1002.07 250.867 1001.56 249.8C1001.05 248.733 1000.78 247.56 1000.76 246.28C1000.74 244.979 1000.95 243.72 1001.4 242.504C1001.87 241.288 1002.53 240.2 1003.38 239.24C1004.26 238.259 1005.27 237.491 1006.42 236.936C1007.6 236.36 1008.88 236.072 1010.26 236.072C1011.26 236.072 1012.17 236.243 1012.98 236.584C1013.81 236.925 1014.46 237.427 1014.93 238.088C1015.42 238.749 1015.68 239.592 1015.7 240.616C1015.72 242.301 1015.02 243.507 1013.59 244.232C1012.18 244.957 1010.01 245.32 1007.06 245.32C1006.34 245.32 1005.55 245.309 1004.69 245.288C1003.84 245.245 1002.88 245.181 1001.81 245.096L1002.1 243.912C1003.19 243.976 1004.13 244.029 1004.92 244.072C1005.71 244.093 1006.45 244.104 1007.16 244.104C1008.95 244.104 1010.36 243.976 1011.38 243.72C1012.41 243.443 1013.13 243.048 1013.56 242.536C1014.01 242.003 1014.22 241.363 1014.2 240.616C1014.2 239.848 1014 239.229 1013.59 238.76C1013.21 238.291 1012.7 237.949 1012.09 237.736C1011.47 237.501 1010.81 237.384 1010.1 237.384C1008.97 237.384 1007.93 237.64 1006.97 238.152C1006.03 238.643 1005.21 239.315 1004.5 240.168C1003.82 241 1003.3 241.928 1002.93 242.952C1002.57 243.976 1002.39 245.011 1002.39 246.056C1002.41 247.165 1002.61 248.179 1003 249.096C1003.4 249.992 1003.98 250.707 1004.73 251.24C1005.47 251.773 1006.39 252.04 1007.48 252.04C1008.72 252.04 1009.84 251.741 1010.84 251.144C1011.84 250.525 1012.62 249.704 1013.17 248.68L1014.55 249.096C1014.08 249.928 1013.47 250.664 1012.73 251.304C1011.98 251.944 1011.14 252.445 1010.2 252.808C1009.26 253.149 1008.25 253.32 1007.16 253.32Z" fill="white"/>
<path d="M1022.91 253.32C1021.65 253.32 1020.5 253.107 1019.45 252.68C1018.43 252.253 1017.6 251.613 1016.96 250.76L1017.95 249.672C1018.65 250.461 1019.42 251.048 1020.25 251.432C1021.09 251.816 1022.02 252.008 1023.07 252.008C1024.11 252.008 1025.03 251.848 1025.82 251.528C1026.63 251.208 1027.27 250.749 1027.74 250.152C1028.21 249.555 1028.45 248.861 1028.45 248.072C1028.45 247.219 1028.07 246.611 1027.33 246.248C1026.58 245.885 1025.51 245.512 1024.13 245.128C1023.14 244.851 1022.31 244.595 1021.63 244.36C1020.97 244.104 1020.47 243.773 1020.13 243.368C1019.81 242.963 1019.65 242.408 1019.65 241.704C1019.65 240.488 1019.95 239.464 1020.57 238.632C1021.21 237.8 1022.06 237.171 1023.1 236.744C1024.15 236.296 1025.3 236.072 1026.56 236.072C1027.84 236.072 1028.9 236.296 1029.76 236.744C1030.63 237.171 1031.25 237.725 1031.61 238.408L1030.56 239.272C1030.19 238.632 1029.64 238.163 1028.89 237.864C1028.15 237.544 1027.3 237.384 1026.37 237.384C1025.51 237.384 1024.69 237.523 1023.9 237.8C1023.11 238.077 1022.47 238.504 1021.98 239.08C1021.49 239.656 1021.25 240.392 1021.25 241.288C1021.25 242.035 1021.52 242.568 1022.08 242.888C1022.65 243.187 1023.56 243.496 1024.8 243.816C1025.89 244.115 1026.82 244.424 1027.61 244.744C1028.4 245.043 1029.01 245.427 1029.44 245.896C1029.86 246.365 1030.08 247.005 1030.08 247.816C1030.08 248.925 1029.77 249.896 1029.15 250.728C1028.55 251.56 1027.71 252.2 1026.62 252.648C1025.55 253.096 1024.32 253.32 1022.91 253.32Z" fill="white"/>
<path d="M1038.3 253.32C1037.04 253.32 1035.89 253.107 1034.84 252.68C1033.82 252.253 1032.99 251.613 1032.35 250.76L1033.34 249.672C1034.04 250.461 1034.81 251.048 1035.64 251.432C1036.48 251.816 1037.41 252.008 1038.46 252.008C1039.5 252.008 1040.42 251.848 1041.21 251.528C1042.02 251.208 1042.66 250.749 1043.13 250.152C1043.6 249.555 1043.84 248.861 1043.84 248.072C1043.84 247.219 1043.46 246.611 1042.72 246.248C1041.97 245.885 1040.9 245.512 1039.52 245.128C1038.53 244.851 1037.7 244.595 1037.02 244.36C1036.36 244.104 1035.86 243.773 1035.52 243.368C1035.2 242.963 1035.04 242.408 1035.04 241.704C1035.04 240.488 1035.34 239.464 1035.96 238.632C1036.6 237.8 1037.45 237.171 1038.49 236.744C1039.54 236.296 1040.69 236.072 1041.95 236.072C1043.23 236.072 1044.29 236.296 1045.15 236.744C1046.02 237.171 1046.64 237.725 1047 238.408L1045.95 239.272C1045.58 238.632 1045.03 238.163 1044.28 237.864C1043.54 237.544 1042.69 237.384 1041.76 237.384C1040.9 237.384 1040.08 237.523 1039.29 237.8C1038.5 238.077 1037.86 238.504 1037.37 239.08C1036.88 239.656 1036.64 240.392 1036.64 241.288C1036.64 242.035 1036.91 242.568 1037.47 242.888C1038.04 243.187 1038.95 243.496 1040.19 243.816C1041.28 244.115 1042.21 244.424 1043 244.744C1043.79 245.043 1044.4 245.427 1044.83 245.896C1045.25 246.365 1045.47 247.005 1045.47 247.816C1045.47 248.925 1045.16 249.896 1044.54 250.728C1043.94 251.56 1043.1 252.2 1042.01 252.648C1040.94 253.096 1039.71 253.32 1038.3 253.32Z" fill="white"/>
<path d="M1055.61 253.32C1054.29 253.32 1053.15 253 1052.19 252.36C1051.25 251.72 1050.52 250.867 1050.01 249.8C1049.5 248.733 1049.23 247.56 1049.21 246.28C1049.19 244.979 1049.4 243.72 1049.85 242.504C1050.32 241.288 1050.98 240.2 1051.83 239.24C1052.71 238.259 1053.72 237.491 1054.87 236.936C1056.05 236.36 1057.33 236.072 1058.71 236.072C1059.72 236.072 1060.62 236.243 1061.43 236.584C1062.27 236.925 1062.92 237.427 1063.39 238.088C1063.88 238.749 1064.13 239.592 1064.15 240.616C1064.17 242.301 1063.47 243.507 1062.04 244.232C1060.63 244.957 1058.46 245.32 1055.51 245.32C1054.79 245.32 1054 245.309 1053.15 245.288C1052.29 245.245 1051.33 245.181 1050.27 245.096L1050.55 243.912C1051.64 243.976 1052.58 244.029 1053.37 244.072C1054.16 244.093 1054.91 244.104 1055.61 244.104C1057.4 244.104 1058.81 243.976 1059.83 243.72C1060.86 243.443 1061.58 243.048 1062.01 242.536C1062.46 242.003 1062.67 241.363 1062.65 240.616C1062.65 239.848 1062.45 239.229 1062.04 238.76C1061.66 238.291 1061.16 237.949 1060.54 237.736C1059.92 237.501 1059.26 237.384 1058.55 237.384C1057.42 237.384 1056.38 237.64 1055.42 238.152C1054.48 238.643 1053.66 239.315 1052.95 240.168C1052.27 241 1051.75 241.928 1051.39 242.952C1051.02 243.976 1050.84 245.011 1050.84 246.056C1050.86 247.165 1051.07 248.179 1051.45 249.096C1051.85 249.992 1052.43 250.707 1053.18 251.24C1053.92 251.773 1054.84 252.04 1055.93 252.04C1057.17 252.04 1058.29 251.741 1059.29 251.144C1060.29 250.525 1061.07 249.704 1061.63 248.68L1063 249.096C1062.53 249.928 1061.92 250.664 1061.18 251.304C1060.43 251.944 1059.59 252.445 1058.65 252.808C1057.71 253.149 1056.7 253.32 1055.61 253.32Z" fill="white"/>
<path d="M1069.86 236.36H1071.36L1070.5 240.328C1071.12 239.475 1071.84 238.739 1072.67 238.12C1073.5 237.48 1074.4 236.979 1075.36 236.616C1076.32 236.253 1077.26 236.072 1078.18 236.072C1079.03 236.072 1079.71 236.232 1080.22 236.552C1080.76 236.851 1081.14 237.299 1081.38 237.896C1081.63 238.493 1081.76 239.219 1081.76 240.072C1081.76 240.563 1081.72 241.085 1081.63 241.64C1081.57 242.195 1081.47 242.792 1081.34 243.432L1079.33 253H1077.73L1079.68 243.72C1079.81 243.123 1079.89 242.579 1079.94 242.088C1080 241.597 1080.03 241.149 1080.03 240.744C1080.03 239.656 1079.81 238.856 1079.36 238.344C1078.93 237.811 1078.27 237.544 1077.38 237.544C1076.5 237.544 1075.6 237.768 1074.66 238.216C1073.72 238.664 1072.84 239.283 1072.03 240.072C1071.24 240.84 1070.6 241.715 1070.11 242.696L1067.94 253H1066.34L1069.86 236.36Z" fill="white"/>
<path d="M1085.6 250.92C1085.6 250.813 1085.6 250.696 1085.6 250.568C1085.62 250.44 1085.64 250.323 1085.66 250.216L1088.35 237.672H1086.11L1086.4 236.36H1088.64L1089.82 230.664H1091.42L1090.24 236.36H1093.92L1093.63 237.672H1089.95L1087.55 248.936C1087.46 249.299 1087.4 249.576 1087.36 249.768C1087.34 249.939 1087.33 250.088 1087.33 250.216C1087.33 250.707 1087.49 251.08 1087.81 251.336C1088.13 251.571 1088.5 251.688 1088.93 251.688C1089.35 251.688 1089.75 251.635 1090.11 251.528C1090.47 251.4 1090.78 251.283 1091.04 251.176C1091.31 251.048 1091.49 250.963 1091.55 250.92L1091.74 252.2C1091.63 252.285 1091.4 252.413 1091.04 252.584C1090.7 252.733 1090.28 252.872 1089.79 253C1089.3 253.128 1088.77 253.192 1088.19 253.192C1087.44 253.192 1086.82 253 1086.33 252.616C1085.84 252.211 1085.6 251.645 1085.6 250.92Z" fill="white"/>
<path d="M1101.5 253.32C1100.18 253.32 1099.03 253 1098.07 252.36C1097.14 251.72 1096.41 250.867 1095.9 249.8C1095.39 248.733 1095.12 247.56 1095.1 246.28C1095.08 244.979 1095.29 243.72 1095.74 242.504C1096.21 241.288 1096.87 240.2 1097.72 239.24C1098.6 238.259 1099.61 237.491 1100.76 236.936C1101.94 236.36 1103.22 236.072 1104.6 236.072C1105.6 236.072 1106.51 236.243 1107.32 236.584C1108.15 236.925 1108.8 237.427 1109.27 238.088C1109.76 238.749 1110.02 239.592 1110.04 240.616C1110.06 242.301 1109.36 243.507 1107.93 244.232C1106.52 244.957 1104.35 245.32 1101.4 245.32C1100.68 245.32 1099.89 245.309 1099.03 245.288C1098.18 245.245 1097.22 245.181 1096.15 245.096L1096.44 243.912C1097.53 243.976 1098.47 244.029 1099.26 244.072C1100.05 244.093 1100.79 244.104 1101.5 244.104C1103.29 244.104 1104.7 243.976 1105.72 243.72C1106.75 243.443 1107.47 243.048 1107.9 242.536C1108.35 242.003 1108.56 241.363 1108.54 240.616C1108.54 239.848 1108.34 239.229 1107.93 238.76C1107.55 238.291 1107.04 237.949 1106.43 237.736C1105.81 237.501 1105.15 237.384 1104.44 237.384C1103.31 237.384 1102.27 237.64 1101.31 238.152C1100.37 238.643 1099.55 239.315 1098.84 240.168C1098.16 241 1097.64 241.928 1097.27 242.952C1096.91 243.976 1096.73 245.011 1096.73 246.056C1096.75 247.165 1096.95 248.179 1097.34 249.096C1097.74 249.992 1098.32 250.707 1099.07 251.24C1099.81 251.773 1100.73 252.04 1101.82 252.04C1103.06 252.04 1104.18 251.741 1105.18 251.144C1106.18 250.525 1106.96 249.704 1107.51 248.68L1108.89 249.096C1108.42 249.928 1107.81 250.664 1107.07 251.304C1106.32 251.944 1105.48 252.445 1104.54 252.808C1103.6 253.149 1102.59 253.32 1101.5 253.32Z" fill="white"/>
<path d="M1110.95 251.848L1125.03 237.608H1114.18L1114.47 236.36H1127.14L1126.88 237.512L1112.87 251.752H1123.84L1123.55 253H1110.69L1110.95 251.848Z" fill="white"/>
<path d="M1139.26 253.192C1138.54 253.192 1137.97 253 1137.57 252.616C1137.16 252.211 1136.96 251.667 1136.96 250.984C1136.96 250.856 1136.97 250.728 1136.99 250.6C1137.01 250.451 1137.03 250.312 1137.05 250.184L1141.41 229.64H1143.01L1138.75 249.704C1138.73 249.811 1138.71 249.907 1138.69 249.992C1138.69 250.077 1138.69 250.173 1138.69 250.28C1138.69 251.24 1139.21 251.72 1140.25 251.72C1140.49 251.72 1140.77 251.688 1141.09 251.624C1141.41 251.56 1141.7 251.485 1141.98 251.4V252.68C1141.62 252.808 1141.17 252.925 1140.64 253.032C1140.1 253.139 1139.65 253.192 1139.26 253.192Z" fill="white"/>
<path d="M1146.94 235.72L1148.06 232.584H1147.49L1148.1 229.64H1149.76L1149.12 232.584L1147.81 235.72H1146.94Z" fill="white"/>
<path d="M1152.43 236.36H1154.03L1150.51 253H1148.91L1152.43 236.36ZM1153.87 229.64H1155.47L1154.86 232.584H1153.26L1153.87 229.64Z" fill="white"/>
<path d="M1159.51 236.36H1161.01L1160.15 240.328C1160.77 239.475 1161.49 238.739 1162.32 238.12C1163.16 237.48 1164.05 236.979 1165.01 236.616C1165.97 236.253 1166.91 236.072 1167.83 236.072C1168.68 236.072 1169.36 236.232 1169.88 236.552C1170.41 236.851 1170.79 237.299 1171.03 237.896C1171.28 238.493 1171.41 239.219 1171.41 240.072C1171.41 240.563 1171.37 241.085 1171.28 241.64C1171.22 242.195 1171.12 242.792 1171 243.432L1168.98 253H1167.38L1169.33 243.72C1169.46 243.123 1169.55 242.579 1169.59 242.088C1169.65 241.597 1169.68 241.149 1169.68 240.744C1169.68 239.656 1169.46 238.856 1169.01 238.344C1168.59 237.811 1167.92 237.544 1167.03 237.544C1166.15 237.544 1165.25 237.768 1164.31 238.216C1163.37 238.664 1162.49 239.283 1161.68 240.072C1160.89 240.84 1160.25 241.715 1159.76 242.696L1157.59 253H1155.99L1159.51 236.36Z" fill="white"/>
<path d="M1178 237.672H1175.79L1176.08 236.36H1178.32L1178.42 235.816C1178.69 234.451 1179.11 233.288 1179.66 232.328C1180.24 231.347 1180.92 230.6 1181.71 230.088C1182.5 229.576 1183.37 229.32 1184.3 229.32C1184.9 229.32 1185.46 229.416 1185.97 229.608C1186.5 229.8 1186.93 230.056 1187.25 230.376L1186.42 231.528C1186.2 231.272 1185.89 231.08 1185.49 230.952C1185.1 230.803 1184.7 230.728 1184.27 230.728C1183.25 230.728 1182.36 231.165 1181.62 232.04C1180.89 232.893 1180.36 234.141 1180.02 235.784L1179.92 236.36H1184.37L1184.08 237.672H1179.6L1174.93 259.816H1173.33L1178 237.672Z" fill="white"/>
<path d="M1191.02 253.32C1189.61 253.32 1188.44 253.011 1187.5 252.392C1186.58 251.752 1185.89 250.909 1185.42 249.864C1184.95 248.797 1184.72 247.635 1184.72 246.376C1184.72 244.947 1184.97 243.613 1185.48 242.376C1186.02 241.117 1186.73 240.019 1187.63 239.08C1188.52 238.141 1189.55 237.405 1190.7 236.872C1191.87 236.339 1193.09 236.072 1194.35 236.072C1195.76 236.072 1196.93 236.392 1197.87 237.032C1198.81 237.672 1199.5 238.525 1199.95 239.592C1200.42 240.637 1200.65 241.8 1200.65 243.08C1200.65 244.488 1200.4 245.811 1199.88 247.048C1199.37 248.285 1198.67 249.384 1197.77 250.344C1196.88 251.283 1195.85 252.019 1194.7 252.552C1193.55 253.064 1192.32 253.32 1191.02 253.32ZM1191.31 251.88C1192.29 251.88 1193.24 251.667 1194.16 251.24C1195.07 250.813 1195.89 250.216 1196.62 249.448C1197.37 248.659 1197.95 247.752 1198.38 246.728C1198.81 245.683 1199.02 244.552 1199.02 243.336C1199.02 242.248 1198.83 241.267 1198.44 240.392C1198.08 239.517 1197.54 238.824 1196.81 238.312C1196.09 237.779 1195.18 237.512 1194.09 237.512C1193.11 237.512 1192.16 237.736 1191.24 238.184C1190.33 238.611 1189.49 239.219 1188.75 240.008C1188.02 240.797 1187.45 241.715 1187.02 242.76C1186.59 243.805 1186.38 244.936 1186.38 246.152C1186.38 247.219 1186.56 248.189 1186.92 249.064C1187.29 249.939 1187.83 250.632 1188.56 251.144C1189.3 251.635 1190.22 251.88 1191.31 251.88Z" fill="white"/>
<path d="M1206.65 236.36H1208.18L1207.29 240.456C1208.14 239.219 1209.11 238.248 1210.2 237.544C1211.29 236.819 1212.37 236.424 1213.46 236.36C1213.61 236.339 1213.75 236.339 1213.88 236.36C1214.01 236.36 1214.11 236.36 1214.2 236.36L1213.88 237.8C1212.47 237.843 1211.14 238.291 1209.88 239.144C1208.64 239.976 1207.66 241.128 1206.93 242.6L1204.73 253H1203.13L1206.65 236.36Z" fill="white"/>
<path d="M1217.94 236.36H1219.45L1218.58 240.328C1219.52 238.984 1220.6 237.939 1221.81 237.192C1223.05 236.445 1224.29 236.072 1225.53 236.072C1226.38 236.072 1227.09 236.253 1227.67 236.616C1228.25 236.979 1228.67 237.501 1228.95 238.184C1229.25 238.867 1229.37 239.699 1229.3 240.68C1229.9 239.677 1230.58 238.835 1231.35 238.152C1232.12 237.469 1232.94 236.957 1233.81 236.616C1234.71 236.253 1235.6 236.072 1236.47 236.072C1237.32 236.072 1238.02 236.243 1238.55 236.584C1239.08 236.904 1239.48 237.373 1239.73 237.992C1239.99 238.589 1240.12 239.325 1240.12 240.2C1240.12 240.669 1240.09 241.171 1240.02 241.704C1239.96 242.237 1239.86 242.813 1239.73 243.432L1237.69 253H1236.09L1238.07 243.72C1238.28 242.611 1238.39 241.661 1238.39 240.872C1238.39 239.763 1238.16 238.931 1237.69 238.376C1237.24 237.821 1236.56 237.544 1235.64 237.544C1234.79 237.544 1233.94 237.768 1233.11 238.216C1232.28 238.643 1231.51 239.24 1230.81 240.008C1230.1 240.776 1229.51 241.683 1229.01 242.728L1226.87 253H1225.27L1227.22 243.72C1227.35 243.144 1227.44 242.621 1227.48 242.152C1227.54 241.661 1227.57 241.213 1227.57 240.808C1227.57 239.699 1227.35 238.877 1226.9 238.344C1226.45 237.811 1225.77 237.544 1224.85 237.544C1223.57 237.544 1222.33 238.024 1221.11 238.984C1219.92 239.923 1218.95 241.16 1218.2 242.696L1216.02 253H1214.42L1217.94 236.36Z" fill="white"/>
<path d="M1249.43 253.32C1248.22 253.32 1247.16 253 1246.26 252.36C1245.39 251.699 1244.71 250.835 1244.22 249.768C1243.75 248.701 1243.51 247.549 1243.51 246.312C1243.51 245.011 1243.77 243.752 1244.28 242.536C1244.79 241.32 1245.47 240.232 1246.33 239.272C1247.2 238.291 1248.19 237.512 1249.3 236.936C1250.41 236.36 1251.58 236.072 1252.79 236.072C1254.18 236.072 1255.32 236.456 1256.22 237.224C1257.11 237.992 1257.75 238.909 1258.14 239.976L1258.9 236.36H1260.54L1257.46 250.696C1257.44 250.76 1257.42 250.824 1257.4 250.888C1257.4 250.952 1257.4 251.016 1257.4 251.08C1257.4 251.4 1257.58 251.56 1257.94 251.56L1257.62 253C1257.5 253 1257.38 253.011 1257.27 253.032C1257.16 253.053 1257.07 253.053 1256.98 253.032C1256.6 253.011 1256.31 252.893 1256.12 252.68C1255.93 252.467 1255.83 252.211 1255.83 251.912C1255.83 251.805 1255.84 251.688 1255.86 251.56C1255.88 251.432 1255.92 251.229 1255.96 250.952C1256.02 250.653 1256.11 250.227 1256.22 249.672C1255.36 250.781 1254.32 251.667 1253.08 252.328C1251.86 252.989 1250.65 253.32 1249.43 253.32ZM1250.01 251.88C1250.6 251.88 1251.23 251.763 1251.9 251.528C1252.58 251.293 1253.23 250.973 1253.85 250.568C1254.49 250.141 1255.04 249.661 1255.51 249.128C1256 248.573 1256.35 247.997 1256.57 247.4L1257.72 241.928C1257.61 241.139 1257.34 240.413 1256.89 239.752C1256.44 239.091 1255.86 238.557 1255.16 238.152C1254.48 237.725 1253.71 237.512 1252.86 237.512C1251.85 237.512 1250.88 237.768 1249.94 238.28C1249.03 238.792 1248.2 239.464 1247.48 240.296C1246.78 241.128 1246.21 242.056 1245.78 243.08C1245.38 244.083 1245.18 245.096 1245.18 246.12C1245.18 247.165 1245.38 248.125 1245.78 249C1246.21 249.853 1246.79 250.547 1247.51 251.08C1248.24 251.613 1249.07 251.88 1250.01 251.88Z" fill="white"/>
<path d="M1263.67 250.92C1263.67 250.813 1263.67 250.696 1263.67 250.568C1263.69 250.44 1263.71 250.323 1263.73 250.216L1266.42 237.672H1264.18L1264.47 236.36H1266.71L1267.89 230.664H1269.49L1268.31 236.36H1271.99L1271.7 237.672H1268.02L1265.62 248.936C1265.53 249.299 1265.47 249.576 1265.43 249.768C1265.41 249.939 1265.4 250.088 1265.4 250.216C1265.4 250.707 1265.56 251.08 1265.88 251.336C1266.2 251.571 1266.57 251.688 1267 251.688C1267.42 251.688 1267.82 251.635 1268.18 251.528C1268.54 251.4 1268.85 251.283 1269.11 251.176C1269.38 251.048 1269.56 250.963 1269.62 250.92L1269.81 252.2C1269.7 252.285 1269.47 252.413 1269.11 252.584C1268.77 252.733 1268.35 252.872 1267.86 253C1267.37 253.128 1266.84 253.192 1266.26 253.192C1265.51 253.192 1264.89 253 1264.4 252.616C1263.91 252.211 1263.67 251.645 1263.67 250.92Z" fill="white"/>
<path d="M1276.46 236.36H1278.06L1274.54 253H1272.94L1276.46 236.36ZM1277.9 229.64H1279.5L1278.89 232.584H1277.29L1277.9 229.64Z" fill="white"/>
<path d="M1286.77 253.32C1285.36 253.32 1284.18 253.011 1283.25 252.392C1282.33 251.752 1281.64 250.909 1281.17 249.864C1280.7 248.797 1280.46 247.635 1280.46 246.376C1280.46 244.947 1280.72 243.613 1281.23 242.376C1281.76 241.117 1282.48 240.019 1283.37 239.08C1284.27 238.141 1285.29 237.405 1286.45 236.872C1287.62 236.339 1288.84 236.072 1290.09 236.072C1291.5 236.072 1292.68 236.392 1293.61 237.032C1294.55 237.672 1295.25 238.525 1295.69 239.592C1296.16 240.637 1296.4 241.8 1296.4 243.08C1296.4 244.488 1296.14 245.811 1295.63 247.048C1295.12 248.285 1294.41 249.384 1293.52 250.344C1292.62 251.283 1291.6 252.019 1290.45 252.552C1289.29 253.064 1288.07 253.32 1286.77 253.32ZM1287.05 251.88C1288.04 251.88 1288.98 251.667 1289.9 251.24C1290.82 250.813 1291.64 250.216 1292.37 249.448C1293.11 248.659 1293.7 247.752 1294.13 246.728C1294.55 245.683 1294.77 244.552 1294.77 243.336C1294.77 242.248 1294.57 241.267 1294.19 240.392C1293.83 239.517 1293.28 238.824 1292.56 238.312C1291.83 237.779 1290.93 237.512 1289.84 237.512C1288.86 237.512 1287.91 237.736 1286.99 238.184C1286.07 238.611 1285.24 239.219 1284.49 240.008C1283.77 240.797 1283.19 241.715 1282.77 242.76C1282.34 243.805 1282.13 244.936 1282.13 246.152C1282.13 247.219 1282.31 248.189 1282.67 249.064C1283.03 249.939 1283.58 250.632 1284.3 251.144C1285.05 251.635 1285.97 251.88 1287.05 251.88Z" fill="white"/>
<path d="M1302.39 236.36H1303.9L1303.03 240.328C1303.65 239.475 1304.38 238.739 1305.21 238.12C1306.04 237.48 1306.94 236.979 1307.9 236.616C1308.86 236.253 1309.8 236.072 1310.71 236.072C1311.57 236.072 1312.25 236.232 1312.76 236.552C1313.29 236.851 1313.68 237.299 1313.91 237.896C1314.17 238.493 1314.3 239.219 1314.3 240.072C1314.3 240.563 1314.25 241.085 1314.17 241.64C1314.1 242.195 1314.01 242.792 1313.88 243.432L1311.86 253H1310.26L1312.22 243.72C1312.34 243.123 1312.43 242.579 1312.47 242.088C1312.54 241.597 1312.57 241.149 1312.57 240.744C1312.57 239.656 1312.34 238.856 1311.9 238.344C1311.47 237.811 1310.81 237.544 1309.91 237.544C1309.04 237.544 1308.13 237.768 1307.19 238.216C1306.25 238.664 1305.38 239.283 1304.57 240.072C1303.78 240.84 1303.14 241.715 1302.65 242.696L1300.47 253H1298.87L1302.39 236.36Z" fill="white"/>
</svg>
